<?xml version="1.0" encoding="utf-8"?>
<!-- Generator: Adobe Illustrator 16.0.0, SVG Export Plug-In . SVG Version: 6.00 Build 0)  -->
<!DOCTYPE svg PUBLIC "-//W3C//DTD SVG 1.1//EN" "http://www.w3.org/Graphics/SVG/1.1/DTD/svg11.dtd">
<svg version="1.1" xmlns="http://www.w3.org/2000/svg" xmlns:xlink="http://www.w3.org/1999/xlink" x="0px" y="0px" width="500px"
	 height="500px" viewBox="0 0 500 500" enable-background="new 0 0 500 500" xml:space="preserve">
<g id="BACKGROUND">
	<rect fill="#FFFFFF" width="500" height="500"/>
</g>
<g id="OBJECTS">
	<circle fill="#8599FF" cx="250" cy="200.397" r="145.213"/>
	<g>
		<g id="XMLID_298_">
			<g>
				<path fill="#9BB54E" d="M444.536,298.941c-4.765,7.502-1.961,10.181-7.313,17.598c-5.677,7.159-8.727,3.745-15.185,9.743
					c-6.744,5.708-3.61,9.915-10.917,15.396c-7.555,5.147-10.711,0.197-18.75,4.036c-8.244,3.485-5.211,9.208-13.997,12.291
					c-8.962,2.686-11.814-3.733-20.959-2.477l101.423-94.268c-2.326,8.881-1.062,14.226-4.013,23.136
					C451.486,293.117,448.955,291.2,444.536,298.941z"/>
				<path fill="#BAD46C" d="M458.838,261.261l-101.423,94.268c1.918-9.034-4.274-12.349-0.938-21.091
					c3.717-8.531,9.197-5.094,13.273-13.063c4.421-7.729-0.283-11.242,5.394-18.401c6.008-6.875,9.972-3.454,16.146-9.761
					c6.467-6.011,3.287-9.291,10.836-14.442c7.79-4.795,10.249-1.79,18.087-6.001c8.05-3.843,6.312-6.503,15.252-9.202
					C444.573,261.283,449.807,262.931,458.838,261.261z"/>
			</g>
			<g>
				
					<path fill="none" stroke="#350D75" stroke-width="2" stroke-linecap="round" stroke-linejoin="round" stroke-miterlimit="10" d="
					M357.415,355.528c9.145-1.257,11.997,5.162,20.959,2.477c8.786-3.083,5.753-8.806,13.997-12.291
					c8.039-3.839,11.195,1.111,18.75-4.036c7.307-5.48,4.173-9.688,10.917-15.396c6.458-5.998,9.508-2.584,15.185-9.743
					c5.353-7.417,2.549-10.096,7.313-17.598c4.419-7.741,6.95-5.824,10.289-14.545c2.951-8.91,1.687-14.255,4.013-23.136
					c-9.031,1.67-14.265,0.022-23.372,2.306c-8.94,2.699-7.202,5.359-15.252,9.202c-7.838,4.211-10.297,1.206-18.087,6.001
					c-7.549,5.151-4.369,8.432-10.836,14.442c-6.175,6.307-10.139,2.886-16.146,9.761c-5.677,7.159-0.973,10.672-5.394,18.401
					c-4.076,7.97-9.557,4.532-13.273,13.063C353.141,343.18,359.333,346.494,357.415,355.528z"/>
				
					<line fill="none" stroke="#350D75" stroke-width="2" stroke-linecap="round" stroke-linejoin="round" stroke-miterlimit="10" x1="458.838" y1="261.261" x2="357.415" y2="355.528"/>
			</g>
			
				<line fill="none" stroke="#350D75" stroke-width="2" stroke-linecap="round" stroke-linejoin="round" stroke-miterlimit="10" x1="371.167" y1="342.742" x2="370.533" y2="319.843"/>
			
				<line fill="none" stroke="#350D75" stroke-width="2" stroke-linecap="round" stroke-linejoin="round" stroke-miterlimit="10" x1="389.918" y1="325.315" x2="392.878" y2="291.582"/>
			
				<line fill="none" stroke="#350D75" stroke-width="2" stroke-linecap="round" stroke-linejoin="round" stroke-miterlimit="10" x1="408.123" y1="308.393" x2="414.74" y2="274.92"/>
			
				<line fill="none" stroke="#350D75" stroke-width="2" stroke-linecap="round" stroke-linejoin="round" stroke-miterlimit="10" x1="432.553" y1="285.688" x2="438.806" y2="262.863"/>
			
				<line fill="none" stroke="#350D75" stroke-width="2" stroke-linecap="round" stroke-linejoin="round" stroke-miterlimit="10" x1="426.68" y1="291.147" x2="451.779" y2="290.167"/>
			
				<line fill="none" stroke="#350D75" stroke-width="2" stroke-linecap="round" stroke-linejoin="round" stroke-miterlimit="10" x1="404.624" y1="311.646" x2="437.883" y2="315.588"/>
			
				<line fill="none" stroke="#350D75" stroke-width="2" stroke-linecap="round" stroke-linejoin="round" stroke-miterlimit="10" x1="383.409" y1="331.364" x2="416.766" y2="334.126"/>
			
				<line fill="none" stroke="#350D75" stroke-width="2" stroke-linecap="round" stroke-linejoin="round" stroke-miterlimit="10" x1="367.085" y1="346.535" x2="387.249" y2="349.477"/>
		</g>
		<g id="XMLID_297_">
			<g>
				<path fill="#9BB54E" d="M411.034,240.332c-1.167,9.863,2.952,11.203,1.152,21.268c-2.253,9.959-6.977,7.998-10.58,17.167
					c-4.03,9.015,1.164,11.734-3.544,20.795c-5.12,8.842-10.694,5.384-16.935,13.142c-6.617,7.503-0.791,11.799-8.149,19.159
					c-7.728,7.044-13.709,1.958-22.314,7.652l56.534-144.065c1.956,10.072,5.818,14.845,7.158,25.25
					C415.217,231.1,411.738,230.394,411.034,240.332z"/>
				<path fill="#BAD46C" d="M407.198,195.449l-56.534,144.065c-2.441-10.03-10.285-10.371-11.152-20.792
					c-0.388-10.396,6.798-9.584,7.045-19.587c0.713-9.927-5.727-11.188-3.474-21.149c2.724-9.834,8.372-8.307,11.54-17.647
					c3.605-9.188-1.188-10.953,3.921-19.795c5.527-8.602,9.46-6.767,15.316-14.804c6.25-7.769,3.212-9.606,10.911-16.653
					C392.84,202.379,398.911,201.504,407.198,195.449z"/>
			</g>
			<g>
				
					<path fill="none" stroke="#350D75" stroke-width="2" stroke-linecap="round" stroke-linejoin="round" stroke-miterlimit="10" d="
					M350.664,339.515c8.605-5.694,14.587-0.608,22.314-7.652c7.358-7.36,1.532-11.656,8.149-19.159
					c6.24-7.758,11.814-4.3,16.935-13.142c4.708-9.061-0.486-11.78,3.544-20.795c3.604-9.169,8.327-7.208,10.58-17.167
					c1.8-10.064-2.319-11.404-1.152-21.268c0.704-9.938,4.183-9.232,3.322-19.633c-1.34-10.405-5.202-15.178-7.158-25.25
					c-8.287,6.055-14.358,6.93-22.427,13.638c-7.699,7.047-4.661,8.885-10.911,16.653c-5.856,8.037-9.789,6.202-15.316,14.804
					c-5.108,8.842-0.315,10.607-3.921,19.795c-3.168,9.341-8.816,7.813-11.54,17.647c-2.253,9.961,4.187,11.223,3.474,21.149
					c-0.247,10.003-7.433,9.191-7.045,19.587C340.379,329.144,348.223,329.484,350.664,339.515z"/>
				
					<line fill="none" stroke="#350D75" stroke-width="2" stroke-linecap="round" stroke-linejoin="round" stroke-miterlimit="10" x1="407.198" y1="195.449" x2="350.664" y2="339.515"/>
			</g>
			
				<line fill="none" stroke="#350D75" stroke-width="2" stroke-linecap="round" stroke-linejoin="round" stroke-miterlimit="10" x1="358.328" y1="319.976" x2="346.604" y2="297.215"/>
			
				<line fill="none" stroke="#350D75" stroke-width="2" stroke-linecap="round" stroke-linejoin="round" stroke-miterlimit="10" x1="368.781" y1="293.343" x2="355.433" y2="257.926"/>
			
				<line fill="none" stroke="#350D75" stroke-width="2" stroke-linecap="round" stroke-linejoin="round" stroke-miterlimit="10" x1="378.93" y1="267.48" x2="369.389" y2="230.557"/>
			
				<line fill="none" stroke="#350D75" stroke-width="2" stroke-linecap="round" stroke-linejoin="round" stroke-miterlimit="10" x1="392.547" y1="232.782" x2="387.795" y2="206.762"/>
			
				<line fill="none" stroke="#350D75" stroke-width="2" stroke-linecap="round" stroke-linejoin="round" stroke-miterlimit="10" x1="389.273" y1="241.125" x2="414.082" y2="227.986"/>
			
				<line fill="none" stroke="#350D75" stroke-width="2" stroke-linecap="round" stroke-linejoin="round" stroke-miterlimit="10" x1="376.978" y1="272.452" x2="412.39" y2="260.321"/>
			
				<line fill="none" stroke="#350D75" stroke-width="2" stroke-linecap="round" stroke-linejoin="round" stroke-miterlimit="10" x1="365.153" y1="302.587" x2="400.092" y2="289.22"/>
			
				<line fill="none" stroke="#350D75" stroke-width="2" stroke-linecap="round" stroke-linejoin="round" stroke-miterlimit="10" x1="356.054" y1="325.772" x2="377.789" y2="318.974"/>
		</g>
		<g id="XMLID_300_">
			<g>
				<path fill="#9BB54E" d="M77.169,302.807c4.014,6.349,1.638,8.607,6.148,14.885c4.785,6.062,7.367,3.182,12.814,8.263
					c5.689,4.836,3.033,8.386,9.198,13.032c6.375,4.363,9.052,0.186,15.838,3.444c6.962,2.961,4.387,7.792,11.807,10.413
					c7.568,2.286,9.992-3.134,17.718-2.055l-85.54-79.854c1.949,7.51,0.871,12.024,3.349,19.56
					C71.307,297.871,73.449,296.257,77.169,302.807z"/>
				<path fill="#BAD46C" d="M65.152,270.936l85.54,79.854c-1.604-7.639,3.636-10.428,0.83-17.821
					c-3.124-7.219-7.763-4.322-11.192-11.065c-3.723-6.54,0.26-9.501-4.525-15.562c-5.064-5.821-8.42-2.938-13.627-8.278
					c-5.454-5.091-2.761-7.857-9.131-12.226c-6.574-4.066-8.658-1.531-15.274-5.104c-6.796-3.263-5.323-5.508-12.873-7.805
					C77.207,270.981,72.781,272.364,65.152,270.936z"/>
			</g>
			<g>
				
					<path fill="none" stroke="#350D75" stroke-width="2" stroke-linecap="round" stroke-linejoin="round" stroke-miterlimit="10" d="
					M150.692,350.789c-7.726-1.079-10.149,4.341-17.718,2.055c-7.42-2.621-4.845-7.452-11.807-10.413
					c-6.786-3.259-9.463,0.919-15.838-3.444c-6.165-4.646-3.509-8.196-9.198-13.032c-5.447-5.081-8.029-2.201-12.814-8.263
					c-4.511-6.277-2.135-8.536-6.148-14.885c-3.72-6.55-5.862-4.936-8.668-12.312c-2.478-7.535-1.399-12.05-3.349-19.56
					c7.629,1.429,12.055,0.046,19.747,1.992c7.55,2.297,6.077,4.542,12.873,7.805c6.616,3.573,8.7,1.038,15.274,5.104
					c6.37,4.368,3.677,7.135,9.131,12.226c5.207,5.341,8.563,2.457,13.627,8.278c4.785,6.061,0.803,9.021,4.525,15.562
					c3.43,6.743,8.068,3.847,11.192,11.065C154.328,340.361,149.088,343.15,150.692,350.789z"/>
				
					<line fill="none" stroke="#350D75" stroke-width="2" stroke-linecap="round" stroke-linejoin="round" stroke-miterlimit="10" x1="65.152" y1="270.936" x2="150.692" y2="350.789"/>
			</g>
			
				<line fill="none" stroke="#350D75" stroke-width="2" stroke-linecap="round" stroke-linejoin="round" stroke-miterlimit="10" x1="139.094" y1="339.959" x2="139.672" y2="320.606"/>
			
				<line fill="none" stroke="#350D75" stroke-width="2" stroke-linecap="round" stroke-linejoin="round" stroke-miterlimit="10" x1="123.278" y1="325.196" x2="120.84" y2="296.683"/>
			
				<line fill="none" stroke="#350D75" stroke-width="2" stroke-linecap="round" stroke-linejoin="round" stroke-miterlimit="10" x1="107.925" y1="310.86" x2="102.395" y2="282.561"/>
			
				<line fill="none" stroke="#350D75" stroke-width="2" stroke-linecap="round" stroke-linejoin="round" stroke-miterlimit="10" x1="87.32" y1="291.628" x2="82.078" y2="272.327"/>
			
				<line fill="none" stroke="#350D75" stroke-width="2" stroke-linecap="round" stroke-linejoin="round" stroke-miterlimit="10" x1="92.274" y1="296.253" x2="71.064" y2="295.378"/>
			
				<line fill="none" stroke="#350D75" stroke-width="2" stroke-linecap="round" stroke-linejoin="round" stroke-miterlimit="10" x1="110.875" y1="313.616" x2="82.761" y2="316.887"/>
			
				<line fill="none" stroke="#350D75" stroke-width="2" stroke-linecap="round" stroke-linejoin="round" stroke-miterlimit="10" x1="128.769" y1="330.32" x2="100.573" y2="332.593"/>
			
				<line fill="none" stroke="#350D75" stroke-width="2" stroke-linecap="round" stroke-linejoin="round" stroke-miterlimit="10" x1="142.537" y1="343.172" x2="125.49" y2="345.62"/>
		</g>
		<g id="XMLID_299_">
			<g>
				<path fill="#9BB54E" d="M105.59,253.337c0.969,8.337-2.516,9.463-1.013,17.971c1.886,8.422,5.881,6.773,8.909,14.528
					c3.391,7.626-1.006,9.914,2.957,17.58c4.311,7.482,9.028,4.57,14.287,11.138c5.579,6.354,0.647,9.973,6.853,16.207
					c6.518,5.967,11.582,1.68,18.845,6.507l-47.514-121.854c-1.671,8.508-4.943,12.535-6.097,21.325
					C102.072,245.526,105.014,244.937,105.59,253.337z"/>
				<path fill="#BAD46C" d="M108.914,215.413l47.514,121.854c2.081-8.472,8.71-8.745,9.463-17.551
					c0.346-8.784-5.729-8.111-5.918-16.566c-0.584-8.39,4.86-9.444,2.975-17.866c-2.284-8.316-7.061-7.036-9.721-14.936
					c-3.029-7.771,1.024-9.254-3.276-16.736c-4.656-7.279-7.983-5.736-12.917-12.539c-5.268-6.576-2.696-8.124-9.19-14.094
					C121.036,221.295,115.907,220.545,108.914,215.413z"/>
			</g>
			<g>
				
					<path fill="none" stroke="#350D75" stroke-width="2" stroke-linecap="round" stroke-linejoin="round" stroke-miterlimit="10" d="
					M156.428,337.268c-7.263-4.827-12.327-0.54-18.845-6.507c-6.205-6.234-1.273-9.854-6.853-16.207
					c-5.259-6.567-9.977-3.655-14.287-11.138c-3.963-7.666,0.434-9.954-2.957-17.58c-3.028-7.755-7.023-6.106-8.909-14.528
					c-1.503-8.508,1.981-9.634,1.013-17.971c-0.576-8.4-3.518-7.811-2.772-16.599c1.153-8.79,4.426-12.817,6.097-21.325
					c6.993,5.132,12.122,5.882,18.929,11.566c6.494,5.97,3.923,7.518,9.19,14.094c4.934,6.803,8.261,5.26,12.917,12.539
					c4.301,7.482,0.247,8.966,3.276,16.736c2.66,7.899,7.437,6.619,9.721,14.936c1.886,8.422-3.559,9.477-2.975,17.866
					c0.189,8.455,6.264,7.782,5.918,16.566C165.138,328.522,158.509,328.796,156.428,337.268z"/>
				
					<line fill="none" stroke="#350D75" stroke-width="2" stroke-linecap="round" stroke-linejoin="round" stroke-miterlimit="10" x1="108.914" y1="215.413" x2="156.428" y2="337.268"/>
			</g>
			
				<line fill="none" stroke="#350D75" stroke-width="2" stroke-linecap="round" stroke-linejoin="round" stroke-miterlimit="10" x1="149.986" y1="320.741" x2="159.937" y2="301.527"/>
			
				<line fill="none" stroke="#350D75" stroke-width="2" stroke-linecap="round" stroke-linejoin="round" stroke-miterlimit="10" x1="141.201" y1="298.215" x2="152.547" y2="268.308"/>
			
				<line fill="none" stroke="#350D75" stroke-width="2" stroke-linecap="round" stroke-linejoin="round" stroke-miterlimit="10" x1="132.672" y1="276.34" x2="140.803" y2="245.152"/>
			
				<line fill="none" stroke="#350D75" stroke-width="2" stroke-linecap="round" stroke-linejoin="round" stroke-miterlimit="10" x1="121.228" y1="246.989" x2="125.292" y2="225.01"/>
			
				<line fill="none" stroke="#350D75" stroke-width="2" stroke-linecap="round" stroke-linejoin="round" stroke-miterlimit="10" x1="123.979" y1="254.047" x2="103.037" y2="242.897"/>
			
				<line fill="none" stroke="#350D75" stroke-width="2" stroke-linecap="round" stroke-linejoin="round" stroke-miterlimit="10" x1="134.313" y1="280.545" x2="104.408" y2="270.228"/>
			
				<line fill="none" stroke="#350D75" stroke-width="2" stroke-linecap="round" stroke-linejoin="round" stroke-miterlimit="10" x1="144.25" y1="306.034" x2="114.747" y2="294.672"/>
			
				<line fill="none" stroke="#350D75" stroke-width="2" stroke-linecap="round" stroke-linejoin="round" stroke-miterlimit="10" x1="151.897" y1="325.646" x2="133.54" y2="319.858"/>
		</g>
	</g>
	<g>
		
			<path fill="#51377A" stroke="#350D75" stroke-width="2" stroke-linecap="round" stroke-linejoin="round" stroke-miterlimit="10" d="
			M215.539,207.646c8.9,9.676,30.234,24.51,47.484-1.157l-26-88.918C237.023,117.57,194.305,154.971,215.539,207.646z"/>
		<g>
			<path fill="#FFFFFF" d="M272.523,163.271c0,0,7.75,23.674,24.625,34.799c0,0-20,50.875-35.5,71.875
				c0,0-12.375-26.5-11.375-49.375c0,0,7.375-9.563,7.063-13.813s-5.25-16.313-7.688-20.125L272.523,163.271z"/>
			<path fill="#DFD0F2" d="M279.877,178.877c-4.977-8.357-7.354-15.605-7.354-15.605l-22.875,23.361
				c2.438,3.813,7.375,15.875,7.688,20.125c0.046,0.621-0.087,1.363-0.322,2.164C269.129,202.425,276.292,188.236,279.877,178.877z"
				/>
			<path fill="none" stroke="#350D75" stroke-width="2" stroke-linecap="round" stroke-linejoin="round" stroke-miterlimit="10" d="
				M272.523,163.271c0,0,7.75,23.674,24.625,34.799c0,0-20,50.875-35.5,71.875c0,0-12.375-26.5-11.375-49.375
				c0,0,7.375-9.563,7.063-13.813s-5.25-16.313-7.688-20.125L272.523,163.271z"/>
		</g>
		<g>
			<path fill="#FFFFFF" d="M223.434,123.448c-7.176,6.872-16.465,19.085-8.488,39.241c6.626,16.745,10.605,24.34,14.146,28.111
				c3.54,3.77,11.193,11.236,15.815,10.999c4.623-0.235,23.542-10.421,29.641-32.474c4.697-1.324,13.533-10.793,10.879-19.193
				c-1.777-5.625-6.487-2.372-6.487-2.372c0.259-5.568-0.955-20.134-18.334-30.442C243.226,107.011,227.33,119.719,223.434,123.448z
				"/>
			<path fill="#DFD0F2" d="M251.674,126.57l-4.607-13.188c-11.545-0.156-20.788,7.343-23.633,10.065
				c-7.176,6.872-16.465,19.085-8.488,39.241c3.072,7.764,5.57,13.541,7.725,17.901C224.989,149.465,240.291,130.237,251.674,126.57
				z"/>
			<path fill="none" stroke="#350D75" stroke-width="2" stroke-linecap="round" stroke-linejoin="round" stroke-miterlimit="10" d="
				M223.434,123.448c-7.176,6.872-16.465,19.085-8.488,39.241c6.626,16.745,10.605,24.34,14.146,28.111
				c3.54,3.77,11.193,11.236,15.815,10.999c4.623-0.235,23.542-10.421,29.641-32.474c4.697-1.324,13.533-10.793,10.879-19.193
				c-1.777-5.625-6.487-2.372-6.487-2.372c0.259-5.568-0.955-20.134-18.334-30.442C243.226,107.011,227.33,119.719,223.434,123.448z
				"/>
			<path fill="#FFC4CA" d="M231.795,180.114c0.029,1.356,2.222,2.931,4.19,1.99c1.97-0.939,2.488-3.235,1.785-3.564
				C237.066,178.21,231.771,179.002,231.795,180.114z"/>
			<path fill="none" stroke="#FF8E98" stroke-width="2" stroke-linecap="round" stroke-linejoin="round" stroke-miterlimit="10" d="
				M231.964,171.284c0.554,2.645-0.218,6.98-0.167,8.167s1.301,2.709,2.755,2.795"/>
			<path fill="none" stroke="#FF8E98" stroke-width="2" stroke-linecap="round" stroke-linejoin="round" stroke-miterlimit="10" d="
				M238.841,188.645c3.612-0.018,8.139-2.496,10.169-5.771"/>
			<path fill="#350D75" d="M236.139,152.355c-0.531,0.366-0.621,0.68-0.537,0.897c0.119,0.301,0.735,1.057,1.744,1.209
				c1.014,0.153,1.628-0.391,2.549-0.979c0.923-0.588,4.395-2.984,6.308-3.554c1.149-0.343,4.051-0.165,3.921-0.513
				c-0.135-0.349-3.169-1.533-4.84-1.15C243.31,148.718,239.505,150.054,236.139,152.355z"/>
			<path fill="#350D75" d="M213.763,159.058c0.162,0.408,0.311,0.789,0.468,1.187c1.611-0.551,5.253-0.447,6.197-0.459
				c0.947-0.01,1.659,0.104,2.259-0.563c0.596-0.668,0.593-1.618,0.508-1.931c-0.065-0.225-0.299-0.433-0.857-0.448
				c-3.54-0.085-6.844,0.859-8.424,1.548c-0.106,0.047-0.212,0.124-0.317,0.193C213.657,158.744,213.698,158.896,213.763,159.058z"
				/>
			<path fill="#350D75" d="M248.213,159.354c0.491,1.596-0.405,3.292-2,3.781c-1.599,0.496-3.297-0.402-3.786-2.002
				c-0.495-1.599,0.402-3.289,2-3.783C246.024,156.859,247.721,157.756,248.213,159.354z"/>
			<path fill="none" stroke="#350D75" stroke-width="2" stroke-linecap="round" stroke-linejoin="round" stroke-miterlimit="10" d="
				M241.716,161.063c0.511-1.774,1.516-3.701,4.223-4.536c2.923-0.9,5.733,1.199,5.733,1.199"/>
			<path fill="#350D75" d="M224.04,167.368c0.492,1.596-0.404,3.291-1.999,3.78c-1.598,0.495-3.296-0.402-3.787-2.002
				c-0.493-1.597,0.402-3.29,2.001-3.783C221.854,164.873,223.549,165.769,224.04,167.368z"/>
			<path fill="none" stroke="#350D75" stroke-width="2" stroke-linecap="round" stroke-linejoin="round" stroke-miterlimit="10" d="
				M217.623,168.906c0.511-1.775,1.164-3.59,3.871-4.424c2.923-0.899,5.733,1.2,5.733,1.2"/>
		</g>
		<g id="XMLID_293_">
			<g>
				<path fill="#705699" d="M275.403,151.03c-0.31,0.47-0.5,0.84-0.55,1.04c-5.47,1.45-13.04-3.85-14.24-7.75
					c2.88,10.91,7.62,20.01,12.33,15.23c-0.75,1.279-1.82,2.34-3.34,2.77c-5,1.42-14.5-11.58-17.93-35.75
					c-4.101-3.75-17.78-3.5-30.53,21.62c-13.24,26.08-9.26,50.439-4.25,60.729c-10.37-9.02-15.62-29.029-13.87-49.6
					c2.26-26.59,13.25-46.75,30.15-54.13c16.899-7.37,28.479-0.12,34.55,6.76c13.21,0.74,18.05,16.74,22.51,32.87
					c4.47,16.13,14.16,28.75,25.42,39.5c11.24,10.75,13.45,29.92,13.12,31.37c-0.33,1.46-0.75,9-20.62-4.24
					c-19.88-13.26-33.22-42.14-33.22-42.14c12.63-5.771,11.88-17.45,9.76-20.8c-2.12-3.351-5.75-0.75-5.75-0.75
					c-0.84,0.35-1.64,1.01-2.31,1.729h-0.011C276.134,150.021,275.703,150.57,275.403,151.03z"/>
			</g>
			<g>
				
					<path fill="none" stroke="#350D75" stroke-width="2" stroke-linecap="round" stroke-linejoin="round" stroke-miterlimit="10" d="
					M260.613,144.32c2.88,10.91,7.62,20.01,12.33,15.23"/>
				<g>
					<path fill="#350D75" d="M258.271,125.057c0,0,0.081,1.212,0.202,3.031c0.038,0.453,0.047,0.951,0.115,1.464
						c0.073,0.511,0.15,1.05,0.23,1.607c0.079,0.556,0.162,1.13,0.245,1.714c0.088,0.583,0.151,1.175,0.289,1.766
						c0.241,1.181,0.482,2.361,0.708,3.468c0.198,1.111,0.52,2.119,0.734,2.995c0.459,1.744,0.766,2.906,0.766,2.906l0.015,0.055
						c0.141,0.535-0.179,1.082-0.714,1.223c-0.534,0.141-1.082-0.179-1.223-0.713c-0.005-0.018-0.01-0.04-0.014-0.058
						c0,0-0.241-1.204-0.603-3.011c-0.166-0.905-0.43-1.946-0.564-3.09c-0.162-1.137-0.335-2.35-0.508-3.563
						c-0.102-0.602-0.134-1.222-0.187-1.826c-0.05-0.604-0.099-1.199-0.146-1.774c-0.047-0.574-0.092-1.129-0.135-1.656
						c-0.037-0.525-0.017-1.016-0.027-1.473c-0.013-1.822-0.021-3.037-0.021-3.037c-0.001-0.231,0.185-0.419,0.415-0.421
						C258.073,124.662,258.256,124.838,258.271,125.057z"/>
				</g>
				
					<path fill="none" stroke="#350D75" stroke-width="2" stroke-linecap="round" stroke-linejoin="round" stroke-miterlimit="10" d="
					M260.594,144.261c0.01,0.02,0.01,0.04,0.02,0.06c1.2,3.9,8.771,9.2,14.24,7.75"/>
				<g>
					<path fill="#350D75" d="M264.164,133.433c0,0,0.29,1.281,0.925,3.158c0.318,0.936,0.723,2.015,1.22,3.139
						c0.505,1.12,1.067,2.305,1.754,3.406c0.313,0.57,0.702,1.086,1.058,1.611c0.353,0.527,0.782,0.974,1.149,1.444
						c0.401,0.438,0.822,0.822,1.2,1.207c0.42,0.325,0.818,0.632,1.186,0.915c0.396,0.224,0.76,0.429,1.082,0.61
						c0.31,0.208,0.633,0.255,0.871,0.358c0.489,0.174,0.769,0.274,0.769,0.274l0.165,0.059c0.52,0.186,0.79,0.757,0.604,1.277
						s-0.757,0.791-1.276,0.605c-0.017-0.006-0.036-0.014-0.052-0.021c0,0-0.34-0.143-0.936-0.394
						c-0.287-0.141-0.676-0.243-1.034-0.507c-0.371-0.241-0.798-0.502-1.24-0.811c-0.401-0.353-0.836-0.735-1.296-1.14
						c-0.398-0.455-0.84-0.917-1.25-1.425c-0.369-0.535-0.803-1.056-1.144-1.641c-0.345-0.583-0.72-1.159-1.011-1.777
						c-0.647-1.203-1.15-2.465-1.597-3.65c-0.437-1.189-0.779-2.317-1.043-3.291c-0.522-1.944-0.737-3.281-0.737-3.281
						c-0.03-0.176,0.088-0.343,0.264-0.373C263.964,133.157,264.125,133.269,264.164,133.433z"/>
				</g>
				<g>
					<path fill="#350D75" d="M270.189,137.213c0,0,0.216,0.81,0.637,2.011c0.416,1.197,1.054,2.767,1.844,4.232
						c0.19,0.371,0.404,0.724,0.617,1.069c0.201,0.354,0.443,0.666,0.656,0.982c0.213,0.317,0.463,0.578,0.674,0.85
						c0.219,0.263,0.458,0.468,0.658,0.681c0.203,0.209,0.423,0.342,0.597,0.492c0.173,0.154,0.344,0.24,0.481,0.315
						c0.27,0.155,0.425,0.244,0.425,0.244l0.137,0.079c0.479,0.275,0.646,0.886,0.37,1.366c-0.274,0.479-0.886,0.645-1.365,0.37
						c-0.021-0.012-0.043-0.026-0.063-0.039c0,0-0.207-0.141-0.57-0.386c-0.183-0.123-0.404-0.27-0.609-0.479
						c-0.208-0.205-0.476-0.415-0.7-0.686c-0.222-0.272-0.486-0.552-0.714-0.875c-0.216-0.328-0.476-0.658-0.682-1.027
						c-0.208-0.368-0.444-0.738-0.628-1.135c-0.198-0.392-0.396-0.791-0.563-1.199c-1.42-3.244-2.024-6.678-2.024-6.678
						c-0.042-0.23,0.109-0.45,0.339-0.493C269.922,136.866,270.132,137.004,270.189,137.213z"/>
				</g>
				
					<path fill="none" stroke="#350D75" stroke-width="2" stroke-linecap="round" stroke-linejoin="round" stroke-miterlimit="10" d="
					M216.894,208.92c-10.37-9.02-15.62-29.029-13.87-49.6c2.26-26.59,13.25-46.75,30.15-54.13c16.899-7.37,28.479-0.12,34.55,6.76
					c13.21,0.74,18.05,16.74,22.51,32.87c4.47,16.13,14.16,28.75,25.42,39.5c11.24,10.75,13.45,29.92,13.12,31.37
					c-0.33,1.46-0.75,9-20.62-4.24c-19.88-13.26-33.22-42.14-33.22-42.14c12.63-5.771,11.88-17.45,9.76-20.8
					c-2.12-3.351-5.75-0.75-5.75-0.75c-0.84,0.35-1.64,1.01-2.31,1.729h-0.011c-0.489,0.53-0.92,1.08-1.22,1.54
					c-0.31,0.47-0.5,0.84-0.55,1.04c-0.11,0.47-0.19,4.55-1.9,7.47c0,0-0.01,0-0.01,0.011c-0.75,1.279-1.82,2.34-3.34,2.77
					c-5,1.42-14.5-11.58-17.93-35.75c-4.101-3.75-17.78-3.5-30.53,21.62C207.903,174.271,211.884,198.63,216.894,208.92"/>
			</g>
			<g>
				<path fill="#350D75" d="M250.713,126.846c0,0-0.021-0.071-0.058-0.205c-0.029-0.109-0.097-0.298-0.188-0.545
					c-0.101-0.24-0.217-0.541-0.389-0.869c-0.162-0.334-0.37-0.698-0.624-1.082c-0.244-0.388-0.555-0.782-0.892-1.188
					c-0.355-0.391-0.729-0.809-1.183-1.173c-0.417-0.409-0.938-0.715-1.437-1.075c-0.531-0.305-1.081-0.613-1.656-0.867
					c-0.597-0.201-1.163-0.505-1.781-0.627c-0.612-0.13-1.197-0.357-1.801-0.403c-0.598-0.074-1.175-0.17-1.727-0.219
					c-0.557-0.014-1.083-0.027-1.569-0.04c-0.487-0.029-0.934-0.004-1.33,0.034c-0.397,0.029-0.743,0.055-1.027,0.076
					c-0.571,0.042-0.897,0.065-0.897,0.065l-0.03,0.002c-0.181,0.013-0.338-0.123-0.352-0.304c-0.013-0.174,0.113-0.326,0.283-0.35
					c0,0,0.332-0.045,0.911-0.125c0.291-0.04,0.644-0.088,1.048-0.144c0.405-0.064,0.863-0.12,1.369-0.122
					c0.506-0.019,1.054-0.04,1.634-0.062c0.581,0.014,1.195,0.075,1.832,0.114c0.641,0.011,1.284,0.207,1.951,0.308
					c0.672,0.092,1.312,0.375,1.979,0.56c0.648,0.237,1.281,0.539,1.895,0.844c0.584,0.363,1.192,0.678,1.697,1.107
					c0.54,0.384,0.999,0.83,1.435,1.255c0.417,0.44,0.802,0.873,1.114,1.304c0.321,0.425,0.591,0.835,0.807,1.214
					c0.226,0.373,0.389,0.72,0.527,1.005c0.129,0.289,0.229,0.522,0.294,0.708c0.056,0.162,0.086,0.249,0.086,0.249
					c0.182,0.522-0.094,1.092-0.615,1.274c-0.522,0.182-1.093-0.094-1.275-0.616c-0.006-0.019-0.012-0.037-0.018-0.055
					L250.713,126.846z"/>
			</g>
			<g>
				<path fill="#350D75" d="M251.172,125.633c0.004-0.016,0.098-0.215,0.246-0.625c0.155-0.407,0.35-1.009,0.554-1.741
					c0.185-0.735,0.4-1.602,0.518-2.546c0.145-0.942,0.194-1.956,0.18-2.971c-0.048-0.501-0.033-1.017-0.129-1.505
					c-0.081-0.49-0.134-0.984-0.278-1.436c-0.119-0.46-0.229-0.909-0.411-1.306c-0.167-0.402-0.291-0.803-0.498-1.125
					c-0.186-0.336-0.355-0.643-0.506-0.916c-0.187-0.25-0.349-0.468-0.483-0.647c-0.27-0.361-0.423-0.568-0.423-0.568l-0.021-0.029
					c-0.085-0.113-0.062-0.273,0.052-0.358c0.107-0.08,0.256-0.063,0.344,0.035c0,0,0.18,0.201,0.495,0.552
					c0.158,0.177,0.349,0.393,0.569,0.64c0.186,0.274,0.395,0.583,0.623,0.921c0.25,0.328,0.421,0.737,0.638,1.154
					c0.232,0.413,0.394,0.88,0.566,1.364c0.197,0.478,0.302,0.997,0.436,1.521c0.148,0.522,0.185,1.068,0.281,1.61
					c0.114,1.087,0.155,2.186,0.091,3.209c-0.037,1.027-0.186,1.973-0.315,2.784c-0.149,0.809-0.303,1.478-0.435,1.947
					c-0.125,0.471-0.229,0.761-0.222,0.746c-0.195,0.517-0.772,0.776-1.289,0.581S250.976,126.149,251.172,125.633z"/>
			</g>
		</g>
		<g id="XMLID_296_">
			<g>
				<path fill="#FC8CBE" d="M169.554,219.9l7.29,16.58v0.01c-0.551,0.521-1.16,1.1-1.761,1.68c-0.439-1.31-3.119-8.22-3.56-9.54
					c-0.44-1.31-2.19-3.81-2-7.06c0.03-0.52,0.04-1.08,0.02-1.67H169.554z"/>
				<path fill="#DFD0F2" d="M134.854,168.91c0,0,13.25,3.601,18.42,13.96l-0.69-0.09c-4.899-4.22-11.31-6.6-16-7.88L134.854,168.91z
					"/>
				<path fill="#DFD0F2" d="M197.903,169.28c-24.03,3.08-43.63,13.21-44.26,13.54l-0.37,0.05c0,0,17.42-14.609,42.17-19.6l2.46,6
					V169.28z"/>
				<path fill="#FFFFFF" d="M201.104,168.91l28.42,60.91c0,0-2.98,3.08-3.16,7.42l-28.21-60.47l-44.51,6.05
					c0.63-0.33,20.229-10.46,44.26-13.54C198.964,169.141,200.023,169.021,201.104,168.91z"/>
				<path fill="#FFFFFF" d="M136.583,174.9c4.69,1.28,11.101,3.66,16,7.88l-30.369-3.95l8.06-5.26
					C130.273,173.57,132.903,173.891,136.583,174.9z"/>
				<path fill="#FC8CBE" d="M153.273,182.87l11.69,26.61c-1.021-0.101-1.811,0.5-1.57,1.649c0.439,2.061,0.82,7.75,0.57,10.131
					c-0.25,2.369,0.06,3.189,0.689,5.689c0.62,2.5,1.62,7.811,1.811,10.62c0.17,2.51,0.529,4.48,0.97,6.62l-13.91-4.62l-34.13-61.11
					l2.81,0.37h0.011l30.369,3.95L153.273,182.87z"/>
				<path fill="#FC8CBE" d="M178.724,246.61c0,0,4.55-7.62,5.72-8.71c1.16-1.08,5-2.41,7.87-4.14c2.88-1.721,4.04-6.4,3.29-7.4
					s-2.54,0.38-4.5,1.83c-1.96,1.46-6.521,2.82-8.521,3.57s-2.619,1.56-4.189,3.189c-0.36,0.37-0.91,0.91-1.55,1.53l-7.29-16.58
					h-0.011c-0.06-3.061-0.72-6.771-2.079-8.771c-0.721-1.04-1.681-1.569-2.5-1.649l-11.69-26.61l0.37-0.05l44.51-6.05l28.21,60.47
					l1.03,2.21l-25.45,4.4l-2.63,0.45l-0.021,0.01l-8.979,1.55c1.04-1,2.75-1.67,7-4.58c4.25-2.92,5.17-7.42,4.38-8.04
					c-0.79-0.63-2.13,0.37-4,1.71c-1.88,1.33-6.21,3.04-7.63,3.62c-1.41,0.58-2.75,1.29-4.67,2.92
					C184.163,242.53,180.894,244.99,178.724,246.61z"/>
				<path fill="#FFFFFF" d="M185.264,269.811c2.51,8.7,11.51,13.88,17.39,20.2c0.811,7.06-3.57,20.18-10.63,24.56
					c-7-10.5-16.25-32.25-20.5-41.92c-0.82-1.86-1.42-2.41-1.83-5.83c-0.42-3.42-1.61-19.44-2.11-21.87
					c-0.05-0.26-0.1-0.51-0.149-0.76c-0.44-2.14-0.8-4.11-0.97-6.62c-0.19-2.81-1.19-8.12-1.811-10.62
					c-0.63-2.5-0.939-3.32-0.689-5.689c0.25-2.381-0.131-8.07-0.57-10.131c-0.24-1.149,0.55-1.75,1.57-1.649
					c0.819,0.08,1.779,0.609,2.5,1.649c1.359,2,2.02,5.71,2.079,8.771c0.021,0.59,0.011,1.15-0.02,1.67c-0.19,3.25,1.56,5.75,2,7.06
					c0.44,1.32,3.12,8.23,3.56,9.54c0.601-0.58,1.21-1.159,1.761-1.68v-0.01c0.64-0.62,1.189-1.16,1.55-1.53
					c1.57-1.63,2.189-2.439,4.189-3.189s6.561-2.11,8.521-3.57c1.96-1.45,3.75-2.83,4.5-1.83s-0.41,5.68-3.29,7.4
					c-2.87,1.729-6.71,3.06-7.87,4.14c-1.17,1.09-5.72,8.71-5.72,8.71c2.17-1.62,5.439-4.08,6.67-5.12
					c1.92-1.63,3.26-2.34,4.67-2.92c1.42-0.58,5.75-2.29,7.63-3.62c1.87-1.34,3.21-2.34,4-1.71c0.79,0.62-0.13,5.12-4.38,8.04
					c-4.25,2.91-5.96,3.58-7,4.58c-1,0.96-6.44,7.66-6.89,8.21c2.569-1.88,6.64-4.89,7.97-5.92c1.939-1.49,7.55-3.71,7.899-3.84
					l0.021-0.01l2.63-0.45c0,0-4.37,6.72-6.12,7.91c-1.13,0.77-5.149,4.92-7.81,7.729
					C187.153,263.53,187.434,266.46,185.264,269.811z"/>
				<path fill="#FECB42" d="M207.573,295.7c2.88,17.8-4.3,30.311-6.05,30.25c-3.25-0.82-9.69-7.88-9.81-8.42
					c-0.131-0.55,0.31-2.96,0.31-2.96c7.06-4.38,11.44-17.5,10.63-24.56C202.653,290.011,204.804,291.94,207.573,295.7z"/>
				<path fill="#FECB42" d="M207.453,288.95c5.37-8.46,15.32-24.38,19.94-34.84c4.63-10.46,12.78-23.03,12.78-23.03l9.479,51.32
					c-3.76,5.71-22.88,29.05-24.32,31.42c-1.439,2.37-2.369,7.75-3.5,8.94c-1.119,1.189-4.75,0.75-6.119,1.31
					c-1.381,0.56-10.25,4.25-10.82,4.26c-0.57,0-3.37-2.38-3.37-2.38c1.75,0.061,8.93-12.45,6.05-30.25
					c-2.77-3.76-4.92-5.689-4.92-5.689s1.62-1.36,2.45-1.44C205.333,288.551,206.153,288.641,207.453,288.95z"/>
			</g>
			<g>
				
					<path fill="none" stroke="#350D75" stroke-width="2" stroke-linecap="round" stroke-linejoin="round" stroke-miterlimit="10" d="
					M176.844,236.48c0.64-0.62,1.189-1.16,1.55-1.53c1.57-1.63,2.189-2.439,4.189-3.189s6.561-2.11,8.521-3.57
					c1.96-1.45,3.75-2.83,4.5-1.83s-0.41,5.68-3.29,7.4c-2.87,1.729-6.71,3.06-7.87,4.14c-1.17,1.09-5.72,8.71-5.72,8.71"/>
				
					<path fill="none" stroke="#350D75" stroke-width="2" stroke-linecap="round" stroke-linejoin="round" stroke-miterlimit="10" d="
					M171.523,241.511c0,0,1.76-1.641,3.56-3.341c0.601-0.58,1.21-1.159,1.761-1.68"/>
				
					<path fill="none" stroke="#350D75" stroke-width="2" stroke-linecap="round" stroke-linejoin="round" stroke-miterlimit="10" d="
					M183.413,254.09c-0.01,0.011-0.02,0.021-0.02,0.021"/>
				
					<path fill="none" stroke="#350D75" stroke-width="2" stroke-linecap="round" stroke-linejoin="round" stroke-miterlimit="10" d="
					M176.653,248.15c0,0,0.87-0.64,2.07-1.54c2.17-1.62,5.439-4.08,6.67-5.12c1.92-1.63,3.26-2.34,4.67-2.92
					c1.42-0.58,5.75-2.29,7.63-3.62c1.87-1.34,3.21-2.34,4-1.71c0.79,0.62-0.13,5.12-4.38,8.04c-4.25,2.91-5.96,3.58-7,4.58
					c-1,0.96-6.44,7.66-6.89,8.21"/>
				
					<path fill="none" stroke="#350D75" stroke-width="2" stroke-linecap="round" stroke-linejoin="round" stroke-miterlimit="10" d="
					M181.233,255.69c0,0,0.9-0.66,2.18-1.601c0-0.01,0.011-0.02,0.011-0.02c2.569-1.88,6.64-4.89,7.97-5.92
					c1.939-1.49,7.55-3.71,7.899-3.84"/>
				
					<polyline fill="none" stroke="#350D75" stroke-width="2" stroke-linecap="round" stroke-linejoin="round" stroke-miterlimit="10" points="
					122.203,178.83 119.394,178.46 153.523,239.57 167.434,244.19 				"/>
				
					<polyline fill="none" stroke="#350D75" stroke-width="2" stroke-linecap="round" stroke-linejoin="round" stroke-miterlimit="10" points="
					190.313,245.86 199.293,244.311 199.313,244.301 201.943,243.851 227.394,239.45 226.363,237.24 198.153,176.771 
					153.644,182.82 153.273,182.87 152.583,182.78 122.214,178.83 				"/>
				
					<polyline fill="none" stroke="#350D75" stroke-width="2" stroke-linecap="round" stroke-linejoin="round" stroke-miterlimit="10" points="
					169.554,219.9 176.844,236.48 176.844,236.49 				"/>
				
					<path fill="none" stroke="#350D75" stroke-width="2" stroke-linecap="round" stroke-linejoin="round" stroke-miterlimit="10" d="
					M164.964,209.48l-11.69-26.61c0,0,17.42-14.609,42.17-19.6l2.46,6"/>
				
					<path fill="none" stroke="#350D75" stroke-width="2" stroke-linecap="round" stroke-linejoin="round" stroke-miterlimit="10" d="
					M201.943,243.851c0,0-4.37,6.72-6.12,7.91c-1.13,0.77-5.149,4.92-7.81,7.729c-1.44,1.51-2.49,2.64-2.49,2.64"/>
				
					<path fill="none" stroke="#350D75" stroke-width="2" stroke-linecap="round" stroke-linejoin="round" stroke-miterlimit="10" d="
					M188.014,259.49c-0.86,4.04-0.58,6.97-2.75,10.32c-0.65,1.01-1.54,2.069-2.74,3.2"/>
				
					<path fill="none" stroke="#350D75" stroke-width="2" stroke-linecap="round" stroke-linejoin="round" stroke-miterlimit="10" d="
					M185.264,269.811c2.51,8.7,11.51,13.88,17.39,20.2c0.811,7.06-3.57,20.18-10.63,24.56c-7-10.5-16.25-32.25-20.5-41.92
					c-0.82-1.86-1.42-2.41-1.83-5.83c-0.42-3.42-1.61-19.44-2.11-21.87c-0.05-0.26-0.1-0.51-0.149-0.76
					c-0.44-2.14-0.8-4.11-0.97-6.62c-0.19-2.81-1.19-8.12-1.811-10.62c-0.63-2.5-0.939-3.32-0.689-5.689
					c0.25-2.381-0.131-8.07-0.57-10.131c-0.24-1.149,0.55-1.75,1.57-1.649c0.819,0.08,1.779,0.609,2.5,1.649
					c1.359,2,2.02,5.71,2.079,8.771c0.021,0.59,0.011,1.15-0.02,1.67c-0.19,3.25,1.56,5.75,2,7.06c0.44,1.32,3.12,8.23,3.56,9.54"/>
				
					<path fill="none" stroke="#350D75" stroke-width="2" stroke-linecap="round" stroke-linejoin="round" stroke-miterlimit="10" d="
					M218.354,320.65c-2.2-11.49-7.05-19.89-10.78-24.95c-2.77-3.76-4.92-5.689-4.92-5.689s1.62-1.36,2.45-1.44
					c0.229-0.02,1.05,0.07,2.35,0.38c3.5,0.82,10.511,3.17,19.07,8.87"/>
				
					<path fill="none" stroke="#350D75" stroke-width="2" stroke-linecap="round" stroke-linejoin="round" stroke-miterlimit="10" d="
					M192.023,314.57c0,0-0.44,2.41-0.31,2.96c0.119,0.54,6.56,7.6,9.81,8.42c1.75,0.061,8.93-12.45,6.05-30.25"/>
				
					<path fill="none" stroke="#350D75" stroke-width="2" stroke-linecap="round" stroke-linejoin="round" stroke-miterlimit="10" d="
					M201.523,325.95c0,0,2.8,2.38,3.37,2.38c0.57-0.01,9.439-3.7,10.82-4.26c1.369-0.56,5-0.12,6.119-1.31
					c1.131-1.19,2.061-6.57,3.5-8.94c1.44-2.37,20.561-25.71,24.32-31.42l-9.479-51.32c0,0-8.15,12.57-12.78,23.03
					c-4.62,10.46-14.57,26.38-19.94,34.84"/>
				
					<path fill="none" stroke="#350D75" stroke-width="2" stroke-linecap="round" stroke-linejoin="round" stroke-miterlimit="10" d="
					M122.203,178.83h0.011l8.06-5.26c0,0,2.63,0.32,6.31,1.33c4.69,1.28,11.101,3.66,16,7.88c0.04,0.03,0.07,0.06,0.11,0.09"/>
				
					<path fill="none" stroke="#350D75" stroke-width="2" stroke-linecap="round" stroke-linejoin="round" stroke-miterlimit="10" d="
					M153.623,182.83c0,0,0.011,0,0.021-0.01c0.63-0.33,20.229-10.46,44.26-13.54c1.061-0.14,2.12-0.26,3.2-0.37l28.42,60.91
					c0,0-2.98,3.08-3.16,7.42"/>
				
					<path fill="none" stroke="#350D75" stroke-width="2" stroke-linecap="round" stroke-linejoin="round" stroke-miterlimit="10" d="
					M136.583,174.9l-1.729-5.99c0,0,13.25,3.601,18.42,13.96"/>
			</g>
		</g>
		
			<path fill="#2E418F" stroke="#350D75" stroke-width="2" stroke-linecap="round" stroke-linejoin="round" stroke-miterlimit="10" d="
			M173.419,317.525c22.521,2.879,38.188,8.046,52.688,12.546s40.667,11.5,40.667,11.5l17.039,8.119v38.245h-89.502
			C194.311,387.936,170.731,350.979,173.419,317.525z"/>
		<g>
			
				<path fill="#959CB0" stroke="#350D75" stroke-width="2" stroke-linecap="round" stroke-linejoin="round" stroke-miterlimit="10" d="
				M252.606,235.403c0,0,12.156,3.5,30.5-2.5l-21.458,49.5C261.648,282.403,253.057,255.261,252.606,235.403z"/>
			<g>
				<path fill="#FECB42" d="M255.473,212.558c0,0-3.949,25.513,6.176,57.388l21.25,36.125l3.015,43.495c0,0-13.39,1.88-24.265-8.745
					c2.5-13.75,1.125-31.25,0-34s-12.875-11.75-16.25-19.625s-5-34.875-5.625-43.5s-0.625-11.125,1.875-16.25
					S255.473,212.558,255.473,212.558z"/>
				<path fill="#FEAB47" d="M285.913,349.565l-2.468-35.612l-24.288-10.202l0,0c1.287,1.329,2.214,2.391,2.491,3.069
					c1.125,2.75,2.5,20.25,0,34C272.523,351.445,285.913,349.565,285.913,349.565z"/>
				
					<path fill="none" stroke="#350D75" stroke-width="2" stroke-linecap="round" stroke-linejoin="round" stroke-miterlimit="10" d="
					M255.473,212.558c0,0-3.949,25.513,6.176,57.388l21.25,36.125l3.015,43.495c0,0-13.39,1.88-24.265-8.745
					c2.5-13.75,1.125-31.25,0-34s-12.875-11.75-16.25-19.625s-5-34.875-5.625-43.5s-0.625-11.125,1.875-16.25
					S255.473,212.558,255.473,212.558z"/>
			</g>
			<g>
				<path fill="#FECB42" d="M291.792,193.883c0,0-14.602,42.104-30.144,76.063c0,0,5.459,22.624,17.125,36.291
					c6.666,14,2.167,41,2,42.5s22.001,7.001,43.167,5.001s31.334-1.667,37.5,1.333s19.166,11,19.166,11s-7.334-23.667-24.5-47.667
					c-2-33.5-1.398-57.125-5.666-83.5c-0.956-5.907-11.939-15.385-21.334-20.667C312.004,204.62,291.792,193.883,291.792,193.883z"
					/>
				<path fill="#FEAB47" d="M291.792,193.883c0,0-5.828,16.805-14.038,37.741l13.145,12.821l5.354-48.181
					C293.467,194.772,291.792,193.883,291.792,193.883z"/>
				<path fill="#FEAB47" d="M299.572,353.273c2.856,0.338,5.916,0.604,9.092,0.756c13.371-3.123,38.8-7.901,64.446-6.461
					c-3.951-8.386-9.55-18.742-17.004-29.165c-1.324-22.178-1.509-40.026-2.72-57.211l-36.742-7.72L299.572,353.273z"/>
				
					<path fill="none" stroke="#350D75" stroke-width="2" stroke-linecap="round" stroke-linejoin="round" stroke-miterlimit="10" d="
					M291.792,193.883c0,0-14.602,42.104-30.144,76.063c0,0,5.459,22.624,17.125,36.291c6.666,14,2.167,41,2,42.5
					s22.001,7.001,43.167,5.001s31.334-1.667,37.5,1.333s19.166,11,19.166,11s-7.334-23.667-24.5-47.667
					c-2-33.5-1.398-57.125-5.666-83.5c-0.956-5.907-11.939-15.385-21.334-20.667C312.004,204.62,291.792,193.883,291.792,193.883z"
					/>
			</g>
			
				<polygon fill="#FECB42" stroke="#350D75" stroke-width="2" stroke-linecap="round" stroke-linejoin="round" stroke-miterlimit="10" points="
				279.877,226.168 297.148,236.487 299.017,197.748 287.542,189.543 			"/>
			
				<polygon fill="#FECB42" stroke="#350D75" stroke-width="2" stroke-linecap="round" stroke-linejoin="round" stroke-miterlimit="10" points="
				257.303,207.646 254.813,230.818 246.273,237.237 252.156,215.546 			"/>
		</g>
		<g id="XMLID_295_">
			<g>
				<path fill="#DFD0F2" d="M249.483,328.33h0.01c-0.76,1.8-0.87,3.681-1.22,5.41c-0.53,2.62-1.75,7.58-2.33,10.33
					c-0.59,2.75,0.33,5.67,0.91,7.67c0.59,2,0.67,5,0.75,6.5c0.01,0.23,0.02,0.46,0.03,0.68c-0.051,0.341-1.75,1.591-2.42,1.341
					c-0.69-0.25-0.25-1.631-0.5-3.311c-0.25-1.689-1.061-5.76-1.881-8.189c-0.81-2.44-0.64-5.11,0.36-7.69
					S249.483,328.33,249.483,328.33z"/>
				<path fill="#FECB42" d="M330.783,296.48c0,0-0.569-1.41-1.13-2.41c-0.57-1,0.74-3.62,0.62-4.62s-4.88-9.88-10.88-23.63
					s-1.12-27.87,3.63-42.5c5.75-0.63,20.08,1.17,26.06,8.21c5.99,7.05,9.69,29.37,12.19,38.42c2.5,9.04,14.33,44.29,14.92,49.04
					c0.58,4.75-7.34,9.08-8.8,10.66c-1.46,1.59-2.79,4.92-4.55,5.67c-1.761,0.75-7.49-1-9.07-1s-9.21,1.02-10.92,1
					c-1.7-0.02-3.69-2-3.69-2s1.49-14.47-5.87-26.44c-4.71-3.409-7.96-5.189-7.96-5.189s2.881-5.87,4-5.74
					C329.493,295.971,330.004,296.15,330.783,296.48z"/>
				<path fill="#FEAB47" d="M376.193,318.99c-0.094-0.754-0.473-2.28-1.05-4.345c-22.762-15.829-42.197-17.7-42.197-17.7
					c20.251,11.372,29.879,25.393,33.989,33.264c0.152-0.201,0.305-0.391,0.458-0.559C368.854,328.07,376.773,323.74,376.193,318.99
					z"/>
				<path fill="#FEAB47" d="M333.396,307.056c7.239,11.937,5.767,26.265,5.767,26.265s1.99,1.98,3.69,2c1.71,0.02,9.34-1,10.92-1
					c1.054,0,3.951,0.776,6.288,1.072C351.995,322.109,339.701,311.812,333.396,307.056z"/>
				<path fill="#FECB42" d="M333.293,306.88c7.36,11.971,5.87,26.44,5.87,26.44s-7.22,0.08-8.64,0s-2.67-1.67-2.67-1.67
					s0.1-0.54,0.03-1.75c-0.091-1.75-0.53-4.9-2.11-9.83c-2.67-8.33-7.92-15.96-7.92-15.96s0.54-0.87,1.25-1.1
					c0.71-0.23,6.229-1.32,6.229-1.32S328.583,303.471,333.293,306.88z"/>
				<path fill="#FFFFFF" d="M251.974,358.311h-0.01c-0.061,1.149-2.44,2.68-3.44,2.76c-0.85,0.07-0.85-0.93-0.89-2.15
					c-0.011-0.22-0.021-0.449-0.03-0.68c-0.08-1.5-0.16-4.5-0.75-6.5c-0.58-2-1.5-4.92-0.91-7.67c0.58-2.75,1.8-7.71,2.33-10.33
					c0.35-1.729,0.46-3.61,1.22-5.41c0.38-0.93,0.94-1.83,1.79-2.68c2.5-2.5,13.37-11.46,15.74-13.83s4.25-2.87,8.5-3.5
					s42.33-4.21,42.33-4.21s5.25,7.63,7.92,15.96c1.58,4.93,2.02,8.08,2.11,9.83c-10.38-0.13-27.94-6-50.03-5.25
					c-1.08,3.17-3.16,7.17-6.75,9.42c-3.58,2.25-9.771,3.94-10.63,5.8c-0.86,1.86-2.76,5.01-3.391,6.82
					c-0.619,1.82-1.25,4.38-1.479,7.07c-0.23,2.689-1.71,4.43-2.89,4.689C252.363,358.521,252.134,358.46,251.974,358.311z"/>
				<path fill="#DFD0F2" d="M327.884,329.9c-0.091-1.75-0.53-4.9-2.11-9.83c-2.67-8.33-7.92-15.96-7.92-15.96
					s-2.867,0.27-7.105,0.673c-5.782,9.954-15.19,16.758-20.616,20.089C306.459,325.959,319.511,329.796,327.884,329.9z"/>
			</g>
			<g>
				
					<path fill="none" stroke="#350D75" stroke-width="2" stroke-linecap="round" stroke-linejoin="round" stroke-miterlimit="10" d="
					M358.583,316.82c-8.829-10.87-23.159-18.34-27.8-20.34c-0.779-0.33-1.29-0.51-1.45-0.53c-1.119-0.13-4,5.74-4,5.74
					s3.25,1.78,7.96,5.189c6.73,4.86,16.45,13.061,23.811,24.11"/>
				
					<path fill="none" stroke="#350D75" stroke-width="2" stroke-linecap="round" stroke-linejoin="round" stroke-miterlimit="10" d="
					M332.363,296.87c4.061,0.5,20.49,3.04,33.53,12.391"/>
				
					<path fill="none" stroke="#350D75" stroke-width="2" stroke-linecap="round" stroke-linejoin="round" stroke-miterlimit="10" d="
					M331.424,296.761c0,0,0.33,0.029,0.93,0.109"/>
				
					<path fill="none" stroke="#350D75" stroke-width="2" stroke-linecap="round" stroke-linejoin="round" stroke-miterlimit="10" d="
					M332.354,296.87c0,0,0,0,0.01,0c0.37-0.149,8.851-3.38,17.41-1.68"/>
				
					<path fill="none" stroke="#350D75" stroke-width="2" stroke-linecap="round" stroke-linejoin="round" stroke-miterlimit="10" d="
					M325.333,301.69c0,0-5.52,1.09-6.229,1.32c-0.71,0.229-1.25,1.1-1.25,1.1s5.25,7.63,7.92,15.96c1.58,4.93,2.02,8.08,2.11,9.83
					c0.069,1.21-0.03,1.75-0.03,1.75s1.25,1.59,2.67,1.67s8.64,0,8.64,0s1.49-14.47-5.87-26.44"/>
				
					<path fill="none" stroke="#350D75" stroke-width="2" stroke-linecap="round" stroke-linejoin="round" stroke-miterlimit="10" d="
					M298.539,207.646c0,0,13.734,6.8,24.484,15.675c-4.75,14.63-9.63,28.75-3.63,42.5s10.76,22.63,10.88,23.63s-1.19,3.62-0.62,4.62
					c0.561,1,1.13,2.41,1.13,2.41"/>
				
					<path fill="none" stroke="#350D75" stroke-width="2" stroke-linecap="round" stroke-linejoin="round" stroke-miterlimit="10" d="
					M339.163,333.32c0,0,1.99,1.98,3.69,2c1.71,0.02,9.34-1,10.92-1s7.31,1.75,9.07,1c1.76-0.75,3.09-4.08,4.55-5.67
					c1.46-1.58,9.38-5.91,8.8-10.66c-0.59-4.75-12.42-40-14.92-49.04c-2.5-9.05-6.2-31.37-12.19-38.42
					c-0.861-1.015-3.68-5.129-4.837-5.934"/>
				
					<path fill="none" stroke="#350D75" stroke-width="2" stroke-linecap="round" stroke-linejoin="round" stroke-miterlimit="10" d="
					M317.854,304.11c0,0-38.08,3.58-42.33,4.21s-6.13,1.13-8.5,3.5s-13.24,11.33-15.74,13.83c-0.85,0.85-1.41,1.75-1.79,2.68
					c-0.76,1.8-0.87,3.681-1.22,5.41c-0.53,2.62-1.75,7.58-2.33,10.33c-0.59,2.75,0.33,5.67,0.91,7.67c0.59,2,0.67,5,0.75,6.5
					c0.01,0.23,0.02,0.46,0.03,0.68c0.04,1.221,0.04,2.221,0.89,2.15c1-0.08,3.38-1.61,3.44-2.76"/>
				
					<path fill="none" stroke="#350D75" stroke-width="2" stroke-linecap="round" stroke-linejoin="round" stroke-miterlimit="10" d="
					M255.604,333.36c0,0-2.75,8.21-3.41,9.96c-0.67,1.75-0.5,3.08-0.34,5c0.17,1.92-0.09,6.5-0.15,7.81
					c-0.04,0.931-0.109,1.83,0.271,2.171v0.01c0.16,0.149,0.39,0.21,0.74,0.14c1.18-0.26,2.659-2,2.89-4.689
					c0.229-2.69,0.86-5.25,1.479-7.07c0.631-1.811,2.53-4.96,3.391-6.82c0.859-1.859,7.05-3.55,10.63-5.8
					c3.59-2.25,5.67-6.25,6.75-9.42c22.09-0.75,39.65,5.12,50.03,5.25"/>
				
					<path fill="none" stroke="#350D75" stroke-width="2" stroke-linecap="round" stroke-linejoin="round" stroke-miterlimit="10" d="
					M249.483,328.33c0,0-5.29,10.16-6.29,12.74s-1.17,5.25-0.36,7.69c0.82,2.43,1.631,6.5,1.881,8.189
					c0.25,1.68-0.19,3.061,0.5,3.311c0.67,0.25,2.369-1,2.42-1.341c0-0.01,0-0.01,0-0.02"/>
			</g>
		</g>
		<g id="XMLID_294_">
			<g>
				<path fill="#FEAB47" d="M288.033,392.67c-0.229,4.48,0.96,7.92,2.62,10.431c-0.24-0.21-2.33-2.021-5.57-1.78
					c-3.43,0.25-13.949,0.65-19.659-1.14C274.413,397.65,281.804,395.19,288.033,392.67z"/>
				<path fill="#FEAB47" d="M158.684,403.88c2.42-2.72,3.31-6.529,3.59-10.89c0.2-3.14-0.34-6.5-1.26-9.56
					c2.59,6.47,2.93,7.64,10.18,7.97c7.25,0.34,18.48-0.4,23.33-0.85c3.84-0.351,7.07-2.681,8.94-4.351
					c0.76,0.271,1.46,0.7,2.1,1.28c2.4,2.17,3.88,6.41,3.88,11.67c0,3.26-1.04,5.689-2.71,7.34c-1.64,1.61-3.9,2.46-6.42,2.561
					c-0.24-0.25-2.47-2.521-5.6-3.171c-3.32-0.699-24-3.869-27.82-4.31c-3.811-0.44-6.24,0.88-8.2,2.31H158.684z"/>
				<path fill="#FECB42" d="M294.684,407.15c0,0-0.41,1.439-4.03,1.439c-3.63,0-18.57,0-22.26,0c-3.68,0-8.67-1.51-11.48-4.199
					c0.7-0.931,0.86-2.15,0.86-2.15c2.67-0.689,5.22-1.38,7.65-2.06c5.71,1.79,16.229,1.39,19.659,1.14
					c3.24-0.24,5.33,1.57,5.57,1.78c0.01,0.01,0.021,0.02,0.021,0.02C291.884,404.931,293.333,406.261,294.684,407.15z"/>
				<path fill="#FECB42" d="M203.464,386.2c-1.87,1.67-5.101,4-8.94,4.351c-4.85,0.449-16.08,1.189-23.33,0.85
					c-7.25-0.33-7.59-1.5-10.18-7.97c-1.36-4.5-3.53-8.37-5.351-9.95c5.45-1.37,10.721-1.55,13.11-1.4
					c13.81,7.431,27.67,11.101,36.41,12.38v0.011C205.184,384.471,204.554,385.221,203.464,386.2z"/>
				<path fill="#FEAB47" d="M158.527,372.861c6.49,4.862,19.657,13.571,35.429,17.74c0.191-0.018,0.393-0.034,0.567-0.051
					c3.84-0.351,7.07-2.681,8.94-4.351c1.09-0.979,1.72-1.729,1.72-1.729v-0.011c-8.74-1.279-22.601-4.949-36.41-12.38
					C166.807,371.957,162.89,372.059,158.527,372.861z"/>
				<path fill="#FECB42" d="M200.313,409.051c-0.18,0.02-0.36,0.02-0.54,0.02c-5.33,0-32.83,0-44.08,0c-2.06,0-4.03-0.37-5.85-1.05
					c4.16-0.561,6.97-2.021,8.84-4.141h0.01c1.96-1.43,4.39-2.75,8.2-2.31c3.82,0.44,24.5,3.61,27.82,4.31
					C197.844,406.53,200.073,408.801,200.313,409.051z"/>
				<path fill="#FFFFFF" d="M311.023,380.21c14.32,7.95,17.17,23.58,6.67,28.38c-2.34,0-3.67,0-3.67,0
					c4.75-6.72-0.5-19.13-10.44-23.739c2.2-1.391,4.2-2.83,6.07-4.33C310.113,380.431,310.563,380.32,311.023,380.21z"/>
				<path fill="#FFFFFF" d="M303.583,384.851c9.94,4.609,15.19,17.02,10.44,23.739c0,0-13.33,0-15.75,0
					c-0.76,0-2.11-0.46-3.59-1.439c-1.351-0.89-2.8-2.22-4.01-4.03c0,0-0.011-0.01-0.021-0.02c-1.66-2.511-2.85-5.95-2.62-10.431
					C294.233,390.16,299.273,387.59,303.583,384.851z"/>
				<path fill="#DFD0F2" d="M311.023,380.21c-0.46,0.11-0.91,0.221-1.37,0.311c-1.87,1.5-3.87,2.939-6.07,4.33
					c-4.31,2.739-9.35,5.31-15.55,7.819c-0.229,4.48,0.96,7.92,2.62,10.431c0.01,0.01,0.021,0.02,0.021,0.02
					c0.232,0.349,0.48,0.663,0.729,0.977c7.729-2.685,19.875-7.643,29.513-14.919C318.736,385.821,315.424,382.652,311.023,380.21z"
					/>
				<path fill="#FFFFFF" d="M168.773,372.08c-2.39-0.149-7.66,0.03-13.11,1.4c-6.729,1.689-13.72,5.18-15.89,12.09
					c-3.05,9.74,1.48,18.56,8.96,21.99c-16.21-3.5-18.71-18.66-12.29-28.15c5.12-7.58,18.25-10.92,25.87-11.1
					C164.453,369.66,166.613,370.92,168.773,372.08z"/>
				<path fill="#DFD0F2" d="M139.578,376.019c1.762,0.664,3.684,1.379,5.672,2.102c3.001-2.255,6.743-3.718,10.413-4.64
					c5.45-1.37,10.721-1.55,13.11-1.4c-2.16-1.16-4.32-2.42-6.46-3.77C155.947,368.461,145.752,370.827,139.578,376.019z"/>
				<path fill="#FFFFFF" d="M161.014,383.431c0.92,3.06,1.46,6.42,1.26,9.56c-0.28,4.36-1.17,8.17-3.59,10.89
					c-1.87,2.12-4.68,3.58-8.84,4.141c-0.38-0.141-0.75-0.29-1.11-0.46c-7.479-3.431-12.01-12.25-8.96-21.99
					c2.17-6.91,9.16-10.4,15.89-12.09C157.483,375.061,159.653,378.931,161.014,383.431z"/>
				<path fill="#FFFFFF" d="M227.023,397.07c2.09,3.93,4.12,6.5,5.81,8.19c-10.6,1.27-18.56,1.14-26.1,1.229
					c1.67-1.65,2.71-4.08,2.71-7.34c0-5.26-1.479-9.5-3.88-11.67l0.02-0.03c2.171-0.5,4.671-1.42,7.12-2.47
					c5.75-2.44,11.21-5.57,11.21-5.57C223.443,382.721,223.783,390.99,227.023,397.07z"/>
				<path fill="#6476C4" d="M239.773,389.9c4.75,12.09,18,12.34,18,12.34s-0.16,1.22-0.86,2.15c-0.29,0.399-0.689,0.75-1.22,0.93
					c-1.75,0.58-10.42,2.67-12.59,3c-2.16,0.33-5,0.5-6.66-0.33c-0.79-0.4-2.06-1.2-3.61-2.729c-1.689-1.69-3.72-4.261-5.81-8.19
					c-3.24-6.08-3.58-14.35-3.11-17.66c0.11-0.77,0.271-1.28,0.44-1.42c0.92-0.75,9.59-6.59,10.75-7.34c1.17-0.75,3.34,0,3.34,0
					S234.684,376.95,239.773,389.9z"/>
				<path fill="#485CB3" d="M183.924,327.57c0.72,0.29,1.449,0.57,2.18,0.83c8.34,3,18.02,6.92,26.6,17.75
					c8.57,10.84,15.49,18.59,22.4,24.5c-1.16,0.75-9.83,6.59-10.75,7.34c-0.17,0.14-0.33,0.65-0.44,1.42c0,0-5.46,3.13-11.21,5.57
					c-1.56,0.13-4.16-0.021-7.52-0.521c-8.74-1.279-22.601-4.949-36.41-12.38c-2.16-1.16-4.32-2.42-6.46-3.77
					c-0.76-0.48-1.53-0.98-2.29-1.49c-21.63-14.5-21.25-21.63-21.37-24c-0.13-2.37,2.29-17.58,8.79-22.08s19.41-3.67,24.08-3.42
					s5.24,1.69,7.08,3.92C180.193,323.15,181.493,325.74,183.924,327.57z"/>
				<path fill="#485CB3" d="M373.254,361.65c0,0,3.35,8.04,0,20.67c-3.36,12.63-15.98,26.27-31.601,26.27c-10.43,0-19.25,0-23.96,0
					c10.5-4.8,7.65-20.43-6.67-28.38c-0.46,0.11-0.91,0.221-1.37,0.311c-1.87,1.5-3.87,2.939-6.07,4.33
					c-4.31,2.739-9.35,5.31-15.55,7.819c-6.229,2.521-13.62,4.98-22.609,7.511c-2.431,0.68-4.98,1.37-7.65,2.06
					c0,0-13.25-0.25-18-12.34c-5.09-12.95-1.33-19.25-1.33-19.25c10.08-5.83,35.71-27.2,48.08-35.83s20-15.37,30.13-15.25
					c8.43,0.1,28.23,11.48,45.39,35.8C365.873,357.48,373.254,361.65,373.254,361.65z"/>
				<path fill="#2E418F" d="M317.693,408.59c4.71,0,13.53,0,23.96,0c15.62,0,28.24-13.64,31.601-26.27c3.35-12.63,0-20.67,0-20.67
					s-2.24-1.266-4.891-2.754l0,0c0.527,2.951-1.646,3.53-1.646,3.53c1.693,3.356-1.256,7.456-6.318,8.224
					s-14.313-3.143-20.188-5.08s-6.914,0.265-6.914,0.265c-2.144,2.015-4.648,1.777-4.648,1.777c-0.917,0.292-2.625,0-3.542-0.875
					s-2.706-1.271-3.155-0.463s-0.743,1.273-1.896,3.104s-8.324,0.317-10.402,0.025s-2.422,1.959-3.213,3.542
					s-5.667,9.625-16.542,14.505c-10.874,4.879-38.613,13.43-38.619,13.432c0.001,0,0.001,0,0.001,0
					c0.009,0.002,2.717,0.558,5.464,1.28c0.647,0.069,1.029,0.078,1.029,0.078c2.67-0.689,5.22-1.38,7.65-2.06
					c8.989-2.53,16.38-4.99,22.609-7.511c6.2-2.51,11.24-5.08,15.55-7.819c2.2-1.391,4.2-2.83,6.07-4.33
					c0.46-0.09,0.91-0.2,1.37-0.311C325.344,388.16,328.193,403.79,317.693,408.59z"/>
			</g>
			<g>
				
					<path fill="none" stroke="#350D75" stroke-width="2" stroke-linecap="round" stroke-linejoin="round" stroke-miterlimit="10" d="
					M238.443,370.65c0,0-2.17-0.75-3.34,0c-1.16,0.75-9.83,6.59-10.75,7.34c-0.17,0.14-0.33,0.65-0.44,1.42
					c-0.47,3.311-0.13,11.58,3.11,17.66c2.09,3.93,4.12,6.5,5.81,8.19c1.551,1.529,2.82,2.329,3.61,2.729
					c1.66,0.83,4.5,0.66,6.66,0.33c2.17-0.33,10.84-2.42,12.59-3c0.53-0.18,0.93-0.53,1.22-0.93c0.7-0.931,0.86-2.15,0.86-2.15
					s-13.25-0.25-18-12.34C234.684,376.95,238.443,370.65,238.443,370.65z"/>
				<g>
					<path fill="#350D75" d="M363.686,355.976c0,0,0.565,0.944,1.413,2.36c0.424,0.708,0.918,1.534,1.448,2.42
						c0.265,0.442,0.538,0.899,0.816,1.364c0.273,0.469,0.572,0.928,0.832,1.417c2.042,3.929,4.083,7.856,4.083,7.856
						c0.097,0.186,0.024,0.414-0.161,0.511c-0.177,0.092-0.394,0.03-0.496-0.137l-0.013-0.021c0,0-2.286-3.731-4.571-7.463
						c-0.29-0.462-0.624-0.905-0.928-1.352c-0.311-0.443-0.616-0.881-0.911-1.304c-0.591-0.845-1.143-1.635-1.615-2.311
						c-0.945-1.354-1.575-2.255-1.575-2.255c-0.317-0.453-0.207-1.077,0.246-1.394c0.452-0.317,1.076-0.207,1.394,0.246
						C363.66,355.935,363.674,355.956,363.686,355.976z"/>
				</g>
				
					<path fill="none" stroke="#350D75" stroke-width="2" stroke-linecap="round" stroke-linejoin="round" stroke-miterlimit="10" d="
					M238.443,370.65c10.08-5.83,35.71-27.2,48.08-35.83s20-15.37,30.13-15.25c8.43,0.1,28.23,11.48,45.39,35.8
					c0.269,0.38,0.537,0.763,0.804,1.149"/>
				<g>
					<path fill="#350D75" d="M312.833,376.438c0,0,0.088-0.083,0.252-0.239c0.073-0.07,0.164-0.157,0.271-0.259
						c0.114-0.118,0.245-0.254,0.393-0.405c0.294-0.304,0.651-0.673,1.061-1.096c0.435-0.415,0.808-0.918,1.271-1.443
						c0.457-0.523,0.951-1.096,1.429-1.759c0.488-0.649,1.019-1.322,1.5-2.07c0.504-0.731,1.029-1.485,1.503-2.292
						c0.245-0.399,0.491-0.801,0.739-1.204l0.69-1.247c0.474-0.825,0.895-1.682,1.328-2.515c0.432-0.834,0.806-1.681,1.191-2.489
						c0.349-0.824,0.714-1.612,1.02-2.375c0.317-0.76,0.607-1.481,0.856-2.155c0.505-1.346,0.907-2.476,1.163-3.274
						c0.263-0.798,0.387-1.252,0.387-1.252c0.058-0.212,0.275-0.336,0.487-0.278c0.199,0.055,0.321,0.253,0.286,0.452
						c0,0-0.086,0.489-0.277,1.32c-0.192,0.832-0.468,2.021-0.9,3.419c-0.206,0.702-0.449,1.457-0.72,2.251
						c-0.251,0.802-0.59,1.62-0.904,2.48c-0.354,0.845-0.694,1.729-1.094,2.606s-0.793,1.775-1.26,2.639l-0.673,1.307
						c-0.243,0.425-0.484,0.848-0.725,1.268c-0.465,0.849-0.984,1.648-1.485,2.425c-0.483,0.787-1.031,1.496-1.531,2.182
						c-0.483,0.692-1.006,1.317-1.494,1.893c-0.482,0.572-0.927,1.121-1.345,1.521c-0.412,0.42-0.771,0.787-1.067,1.089
						c-0.147,0.151-0.279,0.286-0.395,0.403c-0.131,0.125-0.242,0.23-0.332,0.316c-0.166,0.155-0.254,0.237-0.254,0.237
						c-0.403,0.378-1.036,0.357-1.413-0.046C312.414,377.446,312.434,376.816,312.833,376.438z"/>
				</g>
				
					<path fill="none" stroke="#350D75" stroke-width="2" stroke-linecap="round" stroke-linejoin="round" stroke-miterlimit="10" d="
					M257.773,402.24c2.67-0.689,5.22-1.38,7.65-2.06c8.989-2.53,16.38-4.99,22.609-7.511c6.2-2.51,11.24-5.08,15.55-7.819
					c2.2-1.391,4.2-2.83,6.07-4.33c1.346-1.082,2.63-2.202,3.865-3.354"/>
				<g>
					<path fill="#350D75" d="M309.44,379.543c0,0,0.176-0.046,0.505-0.133c0.165-0.043,0.368-0.097,0.606-0.159
						c0.06-0.016,0.122-0.032,0.186-0.049l0.049-0.013l0.012-0.004c0.018-0.004-0.123,0.031-0.061,0.016l0.006-0.002l0.024-0.008
						l0.099-0.032c0.136-0.042,0.278-0.087,0.431-0.135c0.601-0.193,1.354-0.409,2.175-0.693c0.785-0.326,1.675-0.641,2.641-1.057
						c0.955-0.456,2.021-0.88,3.071-1.492c0.529-0.295,1.088-0.572,1.632-0.902c0.541-0.335,1.095-0.677,1.658-1.024
						c0.577-0.326,1.107-0.744,1.672-1.126c0.557-0.393,1.134-0.773,1.665-1.224c0.543-0.435,1.09-0.874,1.64-1.314l1.566-1.426
						c0.535-0.463,1.014-0.983,1.517-1.479c0.498-0.498,1.002-0.99,1.444-1.528c0.455-0.527,0.908-1.051,1.354-1.567
						c0.412-0.546,0.818-1.085,1.219-1.614c0.42-0.518,0.745-1.085,1.104-1.614c0.344-0.538,0.734-1.037,1.019-1.576
						c0.591-1.064,1.203-2.052,1.614-3.037c0.226-0.484,0.442-0.949,0.647-1.391c0.191-0.447,0.344-0.884,0.503-1.289
						c0.313-0.813,0.596-1.522,0.74-2.133c0.354-1.207,0.557-1.897,0.557-1.897l0.008-0.026c0.045-0.154,0.208-0.243,0.362-0.198
						c0.143,0.042,0.229,0.184,0.206,0.326c0,0-0.115,0.726-0.317,1.996c-0.082,0.644-0.289,1.396-0.521,2.267
						c-0.118,0.435-0.228,0.903-0.375,1.388c-0.176,0.474-0.36,0.973-0.553,1.492c-0.352,1.06-0.901,2.13-1.435,3.291
						c-0.255,0.588-0.616,1.135-0.933,1.727c-0.336,0.58-0.663,1.185-1.073,1.748c-0.394,0.575-0.794,1.159-1.199,1.751
						c-0.443,0.564-0.892,1.135-1.344,1.71c-0.44,0.587-0.942,1.127-1.442,1.675c-0.508,0.538-0.973,1.126-1.534,1.616l-1.626,1.526
						c-0.571,0.473-1.14,0.943-1.704,1.411c-0.554,0.481-1.154,0.894-1.735,1.316c-0.588,0.412-1.143,0.859-1.745,1.215
						c-0.594,0.368-1.177,0.731-1.748,1.086c-0.58,0.341-1.176,0.627-1.739,0.93c-1.119,0.627-2.256,1.065-3.273,1.529
						c-1.033,0.441-2.047,0.743-2.911,1.052c-0.861,0.255-1.602,0.432-2.218,0.602c-0.153,0.04-0.298,0.079-0.435,0.115
						l-0.102,0.025l-0.166,0.038c-0.065,0.012-0.128,0.024-0.188,0.036c-0.242,0.046-0.448,0.085-0.616,0.117
						c-0.334,0.063-0.512,0.098-0.512,0.098c-0.543,0.104-1.066-0.253-1.17-0.796c-0.099-0.519,0.222-1.02,0.725-1.153
						L309.44,379.543z"/>
				</g>
				
					<path fill="none" stroke="#350D75" stroke-width="2" stroke-linecap="round" stroke-linejoin="round" stroke-miterlimit="10" d="
					M311.014,380.21h0.01c14.32,7.95,17.17,23.58,6.67,28.38"/>
				
					<path fill="none" stroke="#350D75" stroke-width="2" stroke-linecap="round" stroke-linejoin="round" stroke-miterlimit="10" d="
					M303.583,384.851c9.94,4.609,15.19,17.02,10.44,23.739c0,0,1.33,0,3.67,0c4.71,0,13.53,0,23.96,0
					c15.62,0,28.24-13.64,31.601-26.27c3.35-12.63,0-20.67,0-20.67s-7.381-4.17-11.211-6.28"/>
				
					<path fill="none" stroke="#350D75" stroke-width="2" stroke-linecap="round" stroke-linejoin="round" stroke-miterlimit="10" d="
					M290.653,403.101c-1.66-2.511-2.85-5.95-2.62-10.431"/>
				
					<path fill="none" stroke="#350D75" stroke-width="2" stroke-linecap="round" stroke-linejoin="round" stroke-miterlimit="10" d="
					M314.023,408.59c0,0-13.33,0-15.75,0c-0.76,0-2.11-0.46-3.59-1.439c-1.351-0.89-2.8-2.22-4.01-4.03"/>
				
					<path fill="none" stroke="#350D75" stroke-width="2" stroke-linecap="round" stroke-linejoin="round" stroke-miterlimit="10" d="
					M294.684,407.15c0,0-0.41,1.439-4.03,1.439c-3.63,0-18.57,0-22.26,0c-3.68,0-8.67-1.51-11.48-4.199"/>
				
					<path fill="none" stroke="#350D75" stroke-width="2" stroke-linecap="round" stroke-linejoin="round" stroke-miterlimit="10" d="
					M290.674,403.12c0,0-0.011-0.01-0.021-0.02c-0.24-0.21-2.33-2.021-5.57-1.78c-3.43,0.25-13.949,0.65-19.659-1.14"/>
				
					<path fill="none" stroke="#350D75" stroke-width="2" stroke-linecap="round" stroke-linejoin="round" stroke-miterlimit="10" d="
					M223.913,379.41c0,0-5.46,3.13-11.21,5.57c-2.449,1.05-4.949,1.97-7.12,2.47"/>
				
					<path fill="none" stroke="#350D75" stroke-width="2" stroke-linecap="round" stroke-linejoin="round" stroke-miterlimit="10" d="
					M212.703,384.98c-1.56,0.13-4.16-0.021-7.52-0.521c-8.74-1.279-22.601-4.949-36.41-12.38c-2.16-1.16-4.32-2.42-6.46-3.77
					c-0.76-0.48-1.53-0.98-2.29-1.49c-21.63-14.5-21.25-21.63-21.37-24c-0.13-2.37,2.29-17.58,8.79-22.08s19.41-3.67,24.08-3.42
					s5.24,1.69,7.08,3.92c1.59,1.91,2.89,4.5,5.32,6.33"/>
				
					<path fill="none" stroke="#350D75" stroke-width="2" stroke-linecap="round" stroke-linejoin="round" stroke-miterlimit="10" d="
					M170.193,320.65c0,0,6.3,3.95,13.73,6.92c0.72,0.29,1.449,0.57,2.18,0.83c8.34,3,18.02,6.92,26.6,17.75
					c8.57,10.84,15.49,18.59,22.4,24.5"/>
				
					<path fill="none" stroke="#350D75" stroke-width="2" stroke-linecap="round" stroke-linejoin="round" stroke-miterlimit="10" d="
					M168.773,372.08c-2.39-0.149-7.66,0.03-13.11,1.4c-6.729,1.689-13.72,5.18-15.89,12.09c-3.05,9.74,1.48,18.56,8.96,21.99
					c0.36,0.17,0.73,0.319,1.11,0.46c1.819,0.68,3.76,0.572,5.819,0.572c11.25,0,38.008-0.003,43.338-0.003
					c0.18,0,1.152,0.022,1.332,0.003c2.52-0.101,4.761-0.492,6.4-2.103c1.67-1.65,2.71-4.08,2.71-7.34c0-5.26-1.479-9.5-3.88-11.67
					c-0.64-0.58-1.34-1.01-2.1-1.28"/>
				
					<path fill="none" stroke="#350D75" stroke-width="2" stroke-linecap="round" stroke-linejoin="round" stroke-miterlimit="10" d="
					M206.733,406.49c7.54-0.09,15.5,0.04,26.1-1.229"/>
				
					<path fill="none" stroke="#350D75" stroke-width="2" stroke-linecap="round" stroke-linejoin="round" stroke-miterlimit="10" d="
					M149.844,408.021c4.16-0.561,6.97-2.021,8.84-4.141c2.42-2.72,3.31-6.529,3.59-10.89c0.2-3.14-0.34-6.5-1.26-9.56
					c-1.36-4.5-3.53-8.37-5.351-9.95"/>
				
					<path fill="none" stroke="#350D75" stroke-width="2" stroke-linecap="round" stroke-linejoin="round" stroke-miterlimit="10" d="
					M161.014,383.431c2.59,6.47,2.93,7.64,10.18,7.97c7.25,0.34,18.48-0.4,23.33-0.85c3.84-0.351,7.07-2.681,8.94-4.351
					c1.09-0.979,1.72-1.729,1.72-1.729"/>
				
					<path fill="none" stroke="#350D75" stroke-width="2" stroke-linecap="round" stroke-linejoin="round" stroke-miterlimit="10" d="
					M158.693,403.88c1.96-1.43,4.39-2.75,8.2-2.31c3.82,0.44,24.5,3.61,27.82,4.31c3.13,0.65,4.838,2.471,5.078,2.721"/>
				
					<path fill="none" stroke="#350D75" stroke-width="2" stroke-linecap="round" stroke-linejoin="round" stroke-miterlimit="10" d="
					M162.313,368.311c-7.62,0.18-20.75,3.52-25.87,11.1c-6.42,9.49-3.92,24.65,12.29,28.15"/>
			</g>
			<path fill="none" stroke="#350D75" stroke-linecap="round" stroke-linejoin="round" stroke-miterlimit="10" d="M251.279,400.882
				c0,0,27.744-8.552,38.619-13.432s15.751-12.922,16.542-14.505s1.135-3.834,3.213-3.542s9.25,1.805,10.402-0.025
				s1.446-2.295,1.896-3.104s2.238-0.412,3.155,0.463s2.625,1.167,3.542,0.875"/>
			<path fill="none" stroke="#350D75" stroke-linecap="round" stroke-linejoin="round" stroke-miterlimit="10" d="M333.297,365.835
				c0,0,1.039-2.202,6.914-0.265s15.125,5.848,20.188,5.08s8.012-4.867,6.318-8.224c0,0,2.174-0.579,1.646-3.53"/>
			
				<path fill="#FFFFFF" stroke="#350D75" stroke-width="2" stroke-linecap="round" stroke-linejoin="round" stroke-miterlimit="10" d="
				M170.157,404.104c-0.188,1.345-1.431,2.282-2.775,2.095l0,0c-1.345-0.188-2.282-1.431-2.095-2.775l2.104-15.048
				c0.188-1.344,1.431-2.281,2.776-2.094l0,0c1.344,0.188,2.281,1.431,2.094,2.775L170.157,404.104z"/>
			
				<path fill="#FFFFFF" stroke="#350D75" stroke-width="2" stroke-linecap="round" stroke-linejoin="round" stroke-miterlimit="10" d="
				M182.76,405.17c-0.081,1.355-1.245,2.389-2.601,2.309l0,0c-1.355-0.081-2.389-1.245-2.309-2.601l0.904-15.167
				c0.081-1.354,1.245-2.388,2.602-2.308l0,0c1.354,0.081,2.388,1.245,2.308,2.601L182.76,405.17z"/>
			
				<path fill="#FFFFFF" stroke="#350D75" stroke-width="2" stroke-linecap="round" stroke-linejoin="round" stroke-miterlimit="10" d="
				M194.068,405.084c-0.026,1.357-1.148,2.437-2.506,2.41l0,0c-1.357-0.026-2.437-1.148-2.411-2.506l0.297-15.191
				c0.026-1.356,1.148-2.436,2.507-2.409l0,0c1.356,0.026,2.436,1.148,2.41,2.506L194.068,405.084z"/>
		</g>
	</g>
	
		<line display="none" fill="none" stroke="#350D75" stroke-width="2" stroke-linejoin="round" stroke-miterlimit="10" x1="0" y1="408.59" x2="500" y2="408.59"/>
</g>
<g id="DESIGNED_BY_FREEPIK" display="none">
	<g display="inline">
		<g id="XMLID_230_">
			<g id="XMLID_249_">
				<path id="XMLID_257_" fill="#292B2E" d="M260.101,465.471c-0.432,0.443-0.803,0.932-1.107,1.453l-0.465-0.24
					c-0.068-0.297-0.35-0.502-0.66-0.467c-0.332,0.039-0.566,0.34-0.531,0.67c0.041,0.332,0.342,0.568,0.672,0.529
					c0.066-0.008,0.125-0.025,0.184-0.053l0.451,0.234c-0.25,0.555-0.432,1.139-0.541,1.744l0.748,0.131
					c0.23-1.305,0.85-2.506,1.793-3.473L260.101,465.471z"/>
				<path id="XMLID_256_" fill="#292B2E" d="M265.587,463.17c-0.17,0-0.34,0.006-0.508,0.016l-0.074-0.625
					c0.188-0.15,0.297-0.389,0.266-0.645c-0.045-0.393-0.402-0.674-0.795-0.629c-0.393,0.047-0.674,0.402-0.627,0.797
					c0.029,0.254,0.188,0.461,0.404,0.563l0.072,0.625c-0.713,0.115-1.404,0.332-2.059,0.645l0.326,0.686
					c0.936-0.447,1.941-0.674,2.994-0.674c0.498,0,0.994,0.053,1.477,0.158l0.158-0.742
					C266.687,463.229,266.138,463.17,265.587,463.17z"/>
				<path id="XMLID_255_" fill="#292B2E" d="M272.19,465.717c0.33-0.041,0.564-0.342,0.525-0.672
					c-0.039-0.332-0.34-0.566-0.672-0.525c-0.309,0.037-0.535,0.303-0.529,0.607l-0.416,0.363c-0.418-0.43-0.891-0.813-1.408-1.139
					l-0.406,0.641c1.137,0.715,2.023,1.727,2.566,2.926l0.688-0.313c-0.25-0.555-0.566-1.072-0.939-1.545l0.402-0.352
					C272.062,465.721,272.126,465.725,272.19,465.717z"/>
				<path id="XMLID_254_" fill="#292B2E" d="M265.042,473.377c-0.387,0.023-0.775,0.035-1.158,0.035c-0.879,0-1.732-0.061-2.48-0.18
					c-0.389-0.061-0.844-0.154-1.27-0.291c1.049,1.861,3.07,3.125,5.391,3.125c2.855,0,5.26-1.916,5.947-4.504
					c-0.68,0.449-1.504,0.826-2.457,1.123C267.835,473.053,266.46,473.293,265.042,473.377z"/>
				<path id="XMLID_250_" fill="#292B2E" d="M265.587,464.686c-3.352,0-6.078,2.666-6.078,5.943c0,0.426,0.045,0.85,0.137,1.262
					c0.674,0.482,2.705,0.891,5.348,0.73c2.881-0.174,5.295-0.957,6.672-2.158c-0.004-0.195-0.02-0.391-0.045-0.582
					C271.241,466.92,268.647,464.686,265.587,464.686z M263.429,471.201c-1.02,0-1.85-0.83-1.85-1.85c0-1.021,0.83-1.852,1.85-1.852
					s1.85,0.83,1.85,1.852C265.278,470.371,264.448,471.201,263.429,471.201z M268.167,470.293c-0.75,0-1.363-0.611-1.363-1.361
					s0.613-1.359,1.363-1.359s1.359,0.609,1.359,1.359S268.917,470.293,268.167,470.293z"/>
			</g>
			<path id="XMLID_247_" fill="#292B2E" d="M281.593,466.553c-0.295-0.115-0.809-0.309-1.383-0.238
				c-0.551,0.07-0.844,0.342-0.844,1.008v0.865h2.229v1.717h-2.229v5.455h-1.932v-5.455h-1.34v-1.717h1.34v-0.889
				c0-1.68,0.895-2.781,2.568-2.781c0.643,0,1.156,0.121,1.59,0.307V466.553z"/>
			<path id="XMLID_245_" fill="#292B2E" d="M286.294,469.885c-0.178-0.029-0.359-0.047-0.527-0.047
				c-0.893,0-1.508,0.549-1.508,1.613v3.908h-1.932v-7.172h1.873v0.785c0.451-0.674,1.137-0.977,2.018-0.977
				c0.416,0,0.85,0.127,1.098,0.336L286.294,469.885z"/>
			<path id="XMLID_242_" fill="#292B2E" d="M293.962,471.764c0,0.221-0.016,0.488-0.037,0.65h-5.084
				c0.207,1.037,0.93,1.488,1.842,1.488c0.621,0,1.295-0.252,1.814-0.689l1.133,1.244c-0.814,0.748-1.852,1.088-3.059,1.088
				c-2.197,0-3.723-1.496-3.723-3.752c0-2.258,1.48-3.797,3.627-3.797C292.538,467.996,293.952,469.527,293.962,471.764z
				 M288.849,471.098h3.172c-0.176-0.918-0.732-1.438-1.559-1.438C289.55,469.66,289.019,470.209,288.849,471.098z"/>
			<path id="XMLID_239_" fill="#292B2E" d="M301.616,471.764c0,0.221-0.016,0.488-0.037,0.65h-5.086
				c0.207,1.037,0.934,1.488,1.844,1.488c0.621,0,1.295-0.252,1.813-0.689l1.133,1.244c-0.814,0.748-1.85,1.088-3.057,1.088
				c-2.199,0-3.723-1.496-3.723-3.752c0-2.258,1.48-3.797,3.627-3.797C300.194,467.996,301.608,469.527,301.616,471.764z
				 M296.501,471.098h3.176c-0.178-0.918-0.734-1.438-1.563-1.438C297.204,469.66,296.671,470.209,296.501,471.098z"/>
			<path id="XMLID_236_" fill="#292B2E" d="M309.962,471.77c0,2.154-1.496,3.775-3.475,3.775c-0.959,0-1.641-0.377-2.107-0.932
				v3.707h-1.926v-10.133h1.889v0.793c0.467-0.586,1.154-0.984,2.139-0.984C308.466,467.996,309.962,469.617,309.962,471.77z
				 M304.284,471.77c0,1.133,0.748,1.977,1.844,1.977c1.139,0,1.85-0.881,1.85-1.977c0-1.094-0.711-1.975-1.85-1.975
				C305.032,469.795,304.284,470.639,304.284,471.77z"/>
			<path id="XMLID_233_" fill="#292B2E" d="M313.065,465.842c0,0.695-0.541,1.229-1.236,1.229c-0.697,0-1.229-0.533-1.229-1.229
				s0.531-1.244,1.229-1.244C312.524,464.598,313.065,465.146,313.065,465.842z M312.804,475.359h-1.93v-7.172h1.93V475.359z"/>
			<path id="XMLID_231_" fill="#292B2E" d="M316.028,470.742l2.703-2.555h2.369l-3.48,3.375l3.504,3.797h-2.379l-2.717-2.9v2.9
				h-1.932v-10.658h1.932V470.742z"/>
		</g>
		<g>
			<path fill="#292B2E" d="M184.411,475.295v-1.055c-0.527,0.719-1.395,1.23-2.389,1.23c-1.844,0-3.146-1.406-3.146-3.705
				c0-2.256,1.289-3.721,3.146-3.721c0.953,0,1.816,0.469,2.389,1.244v-3.764h1.098v9.77H184.411z M184.411,473.377v-3.209
				c-0.396-0.615-1.246-1.143-2.125-1.143c-1.42,0-2.27,1.172-2.27,2.74c0,1.566,0.85,2.725,2.27,2.725
				C183.165,474.49,184.015,473.992,184.411,473.377z"/>
			<path fill="#292B2E" d="M186.931,471.75c0-2.051,1.465-3.705,3.486-3.705c2.139,0,3.398,1.67,3.398,3.793v0.279h-5.73
				c0.09,1.332,1.027,2.445,2.551,2.445c0.807,0,1.627-0.322,2.182-0.893l0.529,0.717c-0.703,0.703-1.656,1.084-2.813,1.084
				C188.438,475.471,186.931,473.963,186.931,471.75z M190.401,468.953c-1.508,0-2.256,1.273-2.316,2.357h4.646
				C192.716,470.256,192.013,468.953,190.401,468.953z"/>
			<path fill="#292B2E" d="M194.606,474.357l0.57-0.791c0.469,0.543,1.363,1.012,2.326,1.012c1.088,0,1.674-0.514,1.674-1.217
				c0-1.713-4.381-0.658-4.381-3.281c0-1.098,0.951-2.035,2.637-2.035c1.199,0,2.049,0.453,2.623,1.025l-0.514,0.762
				c-0.424-0.514-1.201-0.895-2.109-0.895c-0.967,0-1.566,0.484-1.566,1.113c0,1.553,4.379,0.527,4.379,3.281
				c0,1.188-0.951,2.139-2.783,2.139C196.306,475.471,195.323,475.119,194.606,474.357z"/>
			<path fill="#292B2E" d="M201.476,466.477c0-0.41,0.338-0.746,0.732-0.746c0.41,0,0.744,0.336,0.744,0.746
				s-0.334,0.732-0.744,0.732C201.813,467.209,201.476,466.887,201.476,466.477z M201.665,475.295v-7.074h1.1v7.074H201.665z"/>
			<path fill="#292B2E" d="M204.581,477.111l0.555-0.82c0.588,0.703,1.291,0.967,2.301,0.967c1.172,0,2.271-0.57,2.271-2.123v-1.012
				c-0.514,0.719-1.377,1.26-2.373,1.26c-1.846,0-3.15-1.377-3.15-3.662c0-2.27,1.289-3.676,3.15-3.676
				c0.951,0,1.801,0.469,2.373,1.244v-1.068h1.098v6.869c0,2.344-1.641,3.076-3.369,3.076
				C206.233,478.166,205.415,477.932,204.581,477.111z M209.708,473.26v-3.092c-0.381-0.615-1.23-1.143-2.109-1.143
				c-1.422,0-2.271,1.129-2.271,2.695c0,1.553,0.85,2.695,2.271,2.695C208.478,474.416,209.327,473.875,209.708,473.26z"/>
			<path fill="#292B2E" d="M217.411,475.295v-4.629c0-1.244-0.629-1.641-1.582-1.641c-0.863,0-1.684,0.527-2.096,1.1v5.17h-1.098
				v-7.074h1.098v1.025c0.5-0.586,1.465-1.201,2.52-1.201c1.48,0,2.258,0.746,2.258,2.285v4.965H217.411z"/>
			<path fill="#292B2E" d="M219.931,471.75c0-2.051,1.465-3.705,3.486-3.705c2.139,0,3.398,1.67,3.398,3.793v0.279h-5.727
				c0.088,1.332,1.025,2.445,2.547,2.445c0.807,0,1.627-0.322,2.182-0.893l0.529,0.717c-0.703,0.703-1.654,1.084-2.813,1.084
				C221.44,475.471,219.931,473.963,219.931,471.75z M223.401,468.953c-1.508,0-2.254,1.273-2.313,2.357h4.643
				C225.716,470.256,225.015,468.953,223.401,468.953z"/>
			<path fill="#292B2E" d="M233.349,475.295v-1.055c-0.529,0.719-1.391,1.23-2.387,1.23c-1.848,0-3.15-1.406-3.15-3.705
				c0-2.256,1.289-3.721,3.15-3.721c0.951,0,1.816,0.469,2.387,1.244v-3.764h1.1v9.77H233.349z M233.349,473.377v-3.209
				c-0.396-0.615-1.246-1.143-2.123-1.143c-1.424,0-2.273,1.172-2.273,2.74c0,1.566,0.85,2.725,2.273,2.725
				C232.103,474.49,232.952,473.992,233.349,473.377z"/>
			<path fill="#292B2E" d="M239.69,475.295v-9.77h1.1v3.764c0.57-0.775,1.418-1.244,2.385-1.244c1.844,0,3.15,1.465,3.15,3.721
				c0,2.299-1.307,3.705-3.15,3.705c-0.996,0-1.857-0.512-2.385-1.23v1.055H239.69z M242.897,474.49
				c1.436,0,2.283-1.158,2.283-2.725c0-1.568-0.848-2.74-2.283-2.74c-0.865,0-1.729,0.527-2.107,1.143v3.209
				C241.169,473.992,242.032,474.49,242.897,474.49z"/>
			<path fill="#292B2E" d="M247.526,477.068c0.158,0.072,0.424,0.117,0.6,0.117c0.482,0,0.805-0.162,1.053-0.748l0.469-1.068
				l-2.957-7.148h1.188l2.355,5.801l2.346-5.801h1.201l-3.547,8.51c-0.424,1.025-1.143,1.422-2.078,1.436
				c-0.236,0-0.6-0.043-0.807-0.104L247.526,477.068z"/>
		</g>
	</g>
</g>
</svg>
